<svg xmlns="http://www.w3.org/2000/svg" fill="#01b2aa" viewBox="0 0 80 80"><path d="M40.81 47.07h-2.69c-.92 0-1.55.62-1.55 1.55 0 .85.52 1.28 1.55 1.28h2.69c.96 0 1.55-.66 1.55-1.28s-.6-1.55-1.55-1.55ZM48.61 47.07h-2.69c-.92 0-1.55.62-1.55 1.55 0 .85.52 1.28 1.55 1.28h2.69c.96 0 1.55-.66 1.55-1.28s-.6-1.55-1.55-1.55ZM56.42 47.07h-2.69c-.92 0-1.54.62-1.54 1.55 0 .85.52 1.28 1.54 1.28h2.69c.96 0 1.55-.66 1.55-1.28s-.6-1.55-1.55-1.55Z"/><path d="M70.88 52.99v-.4l-6.19-9.42V13.56h1.15c1.54 0 2.89-1.23 2.89-2.62V6.1c0-1.52-1.22-2.62-2.89-2.62H13.63c-1.54 0-2.89 1.23-2.89 2.62v4.84c0 1.52 1.22 2.62 2.89 2.62h1.15v29.61l-6.16 9.37-.03.05v22.4c0 .63.6 1.55 1.55 1.55h59.74c.92 0 1.55-.62 1.55-1.55v-22h-.54ZM48.81 6.02h16.55v4.44H48.81V6.02Zm-18.5 26.51c-2.26 0-3.97 1.71-3.97 3.97v.88h-3.37V18.4h33.51v18.98H34.54v-.88c0-2.04-2.06-3.97-4.24-3.97Zm1.15 3.97c0 .43-.14.88-1.15.88-.71 0-1.15-.46-1.15-.88 0-.46.48-1.15 1.15-1.15s1.15.45 1.15 1.15Zm.67 3.7h25.9c.92 0 1.55-.62 1.55-1.55v-21.8c0-.61-.59-1.28-1.55-1.28H21.7c-.95 0-1.55.66-1.55 1.28v21.8c0 .63.6 1.55 1.55 1.55h7.6v2.02H17.86V13.56h43.73v28.66H32.12V40.2ZM43.7 6.02h2.29v4.44H43.7V6.02Zm-5.38 0h2.29v4.44h-2.29V6.02Zm-5.12 0h2.29v4.44H33.2V6.02Zm-19.37 4.72V6.3h16.55v4.44H13.83Zm3.13 34.3h12.07v2.02h-1.15c-.92 0-1.55.62-1.55 1.55 0 .85.52 1.28 1.55 1.28h5.11c.95 0 1.55-.66 1.55-1.28s-.6-1.55-1.55-1.55h-1.15v-2.02h30.1l4.58 6.87H12.39l4.58-6.87Zm51.1 28.67H11.14V54.73h56.92v18.98Z"/><path d="M56.42 70.34h7.8c.92 0 1.55-.62 1.55-1.55V59.1c0-.63-.6-1.55-1.55-1.55h-7.8c-.92 0-1.55.62-1.55 1.55v9.69c0 .63.6 1.55 1.55 1.55Zm1.54-9.69h4.71v6.87h-4.71v-6.87Z"/><path d="M60.45 61.6c-.95 0-1.54.66-1.54 1.28v2.42c0 .61.59 1.28 1.54 1.28S62 65.92 62 65.3v-2.42c0-.61-.59-1.28-1.55-1.28ZM49.96 65.5h1.34c.92 0 1.55-.62 1.55-1.55s-.62-1.55-1.55-1.55h-1.34c-.92 0-1.55.62-1.55 1.55s.62 1.55 1.55 1.55ZM43.5 65.5h1.35c.92 0 1.55-.62 1.55-1.55s-.62-1.55-1.55-1.55H43.5c-.92 0-1.55.62-1.55 1.55s.62 1.55 1.55 1.55ZM37.04 65.5h1.35c.92 0 1.55-.62 1.55-1.55s-.62-1.55-1.55-1.55h-1.35c-.92 0-1.55.62-1.55 1.55s.62 1.55 1.55 1.55Z"/></svg>