<svg xmlns="http://www.w3.org/2000/svg" fill="#01b2aa" viewBox="0 0 80 80"><path d="M79.14 14.02h-.35l-1.12-.39-37.13-11.4-.75-.02L1.48 13.95H.75v10.64h3.61v40.55H.45v10.62h78.69V65.14h-3.92V24.59h3.92V14.02Zm-1.9 58.95H3.26v-4.12h73.98v4.12Zm-4.52-47.18v40.55H68.3V25.79h4.42Zm-6.93 37.64v2.91H14.7v-2.91h51.09ZM14.7 44.66v-2.91h51.09v2.91H14.7Zm34.31 3.32H31.26v2.11H15.3v-2.92h50.49v2.92H49.01v-2.11Zm-2.19 2.5v2.01H33.67v-2.01h13.15Zm2.21 4.22v-2.11h16.16v2.92H14.7v-2.92h16.61v2.11h17.72ZM14.7 39.24v-2.91h51.09v2.91H14.7Zm0-5.42v-2.91h51.09v2.91H14.7Zm0-5.42v-2.91h51.09v2.91H14.7Zm51.09 29.61v2.91H14.7v-2.91h51.09Zm-53.9-32.22v40.55H7.47V25.79h4.42Zm-8.63-9.77L40.09 4.73l36.84 11.29v6.96H3.26v-6.96Z"/><path d="m53.98 10.73-.13-.14-.15-.15c-.5-.39-1.26-.61-1.92-.69v-.03H28.69c-.72.04-1.49.24-2.17.74-.08.06-.23.19-.31.26-.51.5-.92 1.43-.98 2.2v5.47c.05.85.38 1.72 1.11 2.34.5.42 1.56 1.09 2.35 1.13h23.09c.77-.04 1.86-.7 2.33-1.15.54-.52.87-1.5.87-2.25v-5.54c-.05-.8-.39-1.55-.99-2.2Z"/></svg>