<svg xmlns="http://www.w3.org/2000/svg" fill="#01b2aa" viewBox="0 0 80 80"><path d="M33.14 66.12h8.89c.59 0 1.19-.32 1.19-.94v-8.39c0-.39-.61-.94-1.19-.94h-8.89c-.59 0-1.19.32-1.19.94v8.39c0 .39.61.94 1.19.94Zm.94-2.13v-6.26h6.76v6.26h-6.76ZM49.23 68.14c0 .34.46.6.61.67l7.9 3.7.58.02c.31 0 .88-.26.94-.63l3.93-7.37.02-.83c0-.34-.46-.6-.61-.67l-7.9-3.7-.08-.02c-.52 0-1.39 0-1.43.64l-3.93 7.36-.02.83Zm2.45-.84 3.02-5.57 6.05 2.79-3.02 5.57-6.05-2.79Z"/><path d="M76.26 3.87c-.3-.6-.89-.6-1.46-.6l-14.76 3.7c-.6 0-.92.33-.94.66L55.41 20.3H42.66c-.53-9.47-9.02-17.03-19.4-17.03S3.81 11.33 3.81 21.24s8.73 17.97 19.45 17.97h.54l.35 4.24c-.02.18 0 .35.04.5l2.08 24.93c.25 4.32 4.11 7.84 8.59 7.84h27.4c4.53-.12 8.1-3.45 8.34-7.83l1.04-12.47c.44-.14.69-.63.69-1.12 0-.37-.23-.62-.53-.78l2.75-32.96c.25-.34.01-.85-.02-.91l-.04-.05c-.31-.31-.63-.31-.88-.31H57.79l3.39-11.73 14.16-3.42c.94 0 .94-.71.94-1.19l-.02-.09ZM23.51 4.91c8.92.23 16.22 6.67 16.82 14.9h-2.38c-.76-6.89-6.93-12.09-14.68-12.09-3.92 0-7.43 1.35-10.05 3.56-.18.04-.35.1-.46.2-.09.09-.15.22-.19.37-2.53 2.42-4.07 5.71-4.07 9.4s1.61 7 4.21 9.44c.02.02.02.06.04.08.03.03.07.04.1.07 2.64 2.41 6.27 3.9 10.28 3.94l.16 2.08h-.24c-4.61 0-9.1-1.8-12.36-4.98-3.06-2.98-4.75-6.84-4.75-10.86 0-8.74 7.77-15.84 17.32-15.84h.48l-.24-.24Zm.94 13.54V9.43c2.59.27 4.93 1.26 6.78 2.77l-6.78 6.25Zm-2.37.23-6.86-6.33c1.88-1.49 4.25-2.47 6.86-2.7v9.03Zm-1.4 1.62h-9.76c.16-2.45 1.15-4.69 2.74-6.48l7.02 6.48Zm-.27 1.88-6.63 6.12c-1.54-1.7-2.57-3.8-2.83-6.12h9.46Zm5.72-2.37 6.63-6.11c1.44 1.7 2.39 3.79 2.62 6.11h-9.25Zm-3.87 3.58.69 9c-2.88-.07-5.53-1.04-7.6-2.63l6.91-6.37Zm11.6 23.09 1.6 2.06-4.43-.47c-.42-.65-.76-1.34-1.02-2.04l3.85.46Zm3.58 1.3-1.67-2.15.93-4.29c.7.45 1.33.97 1.86 1.55l-1.13 4.89Zm-3.25-4.19-3.17-4.09c1.33.09 2.63.39 3.81.87l-.64 3.21Zm-2.04.68-2.62-.36a9.56 9.56 0 0 1 .12-2.87l2.5 3.23Zm5.15 6.64 1.3 1.68c-.23.03-.48.04-.77.04-1.6 0-3.32-.82-4.87-2.26l4.34.54Zm1.88-.89s.03-.07.03-.12l.98-4.72c1.22 2.19 1.48 4.22.69 5.81l-.24.33c-.08.11-.15.21-.22.3l-1.24-1.59Zm4.17.4c.44-2.29-.45-5.03-2.64-7.82-.01-.02-.03-.03-.04-.05-.05-.47-.31-.89-.76-.95-.91-1.01-2.03-1.86-3.28-2.51a.916.916 0 0 0-.32-.18c-1.77-.86-3.79-1.34-5.88-1.34H29.2c-.19 0-.46.11-.67.27-.05.02-.09.02-.14.05l-.08.04v.09s-.01.1-.03.15c0 .02-.02.03-.02.04-.76 1.65-1.1 3.4-1.07 5.13-.04-.02-.09-.05-.13-.07-.2-.1-.41-.25-.6-.39-.09-.06-.17-.12-.25-.17l-.77-9.09v-.06l-.97-11.38h12.31c.12.2.28 1 .38 1.49.21 1.02.25 1.3.52 1.26.22-.02.32-.04.34-2.75h3.43c.13.28.3 1.44.4 2.14.23 1.55.28 1.72.52 1.7.24-.02.33-.03.34-3.85h12.15l-8.49 29.17c-1.01-.29-2.02-.61-3.03-.93ZM27.51 45.9a11.08 11.08 0 0 0 2.02 4.1c2.46 2.95 5.4 4.68 8.1 4.76v.25h.2c2.01 0 3.74-.98 4.77-2.68 1.26.43 2.52.82 3.78 1.18.15.15.33.26.58.26h.3c6.53 1.8 13.05 2.72 19.44 2.72h3.05L68.72 68.6c-.5 3.48-3.21 6-6.47 6h-27.4c-3.39 0-6.23-2.63-6.47-5.99l-1.97-23.25c.33.14.7.32 1.08.54Zm21.15 6.05 8.6-29.77h15.4l-2.73 32.21c-6.89.24-14.02-.58-21.27-2.44Z"/><path d="M40.54 69.17h-2.96c-.57 0-1.19.55-1.19.94s.61.94 1.19.94h2.96c.57 0 1.19-.55 1.19-.94s-.61-.94-1.19-.94ZM61.28 60.44h2.96c.57 0 1.19-.55 1.19-.94s-.61-.94-1.19-.94h-2.96c-.57 0-1.19.55-1.19.94s.61.94 1.19.94ZM46.47 59.95h2.96c.57 0 1.19-.55 1.19-.94s-.61-.94-1.19-.94h-2.96c-.57 0-1.19.55-1.19.94s.61.94 1.19.94ZM50.23 71.15l-2.44-1.46c-.3-.15-.58-.21-.83-.17-.3.04-.53.22-.68.51-.19.37-.27.92-.06 1.25.1.16.25.25.43.26l2.47 1.48h.35v.25h.2c.31 0 .88-.27.94-.64.17-.37.24-.9.04-1.22a.564.564 0 0 0-.43-.27Z"/></svg>