<svg xmlns="http://www.w3.org/2000/svg" fill="#01b2aa" viewBox="0 0 80 80"><path d="M76.58 20.48c-.16-.04-.31-.08-.45-.12-.7-.18-1.31-.34-2.08-.34h-.91c-.84 0-1.27-.39-1.97-1.32-.95-1.43-2.34-2.55-3.7-3.01-3.1-1.11-6.09-1.18-9.42-.23-3.44.92-5.77 3-6.24 5.58v1.35c-1.18 2.58-4.87 5.7-6.79 6.55-5.15 2.11-10.43 2.7-16.14 1.82-1.61-.46-3.71-.46-5.74-.46-2.82 0-5.59.73-7.81 2.07-.94.47-1.6.92-2.23 1.54-.59-.71-3.47-4.41-2.42-7.81.73-1.95 2.19-3.2 4.73-4.05.36-.12.62-.36.75-.69.12-.31.12-.68 0-1.04-.23-.7-.95-1.01-1.73-.75-3.51 1.4-5.55 3.29-6.22 5.78-.81 3.08.25 6.62 3.16 10.52-1.3 1.54-2.24 3.34-2.71 5.25v3.66c.23 3.23-1.17 5.66-4.29 7.44-2.03 1.27-3.02 2.72-3.02 4.42v2.85l.37-.56c-.14.94-.14 1.74-.14 2.71-.25.99.04 1.93.71 2.38.71.72 1.42.72 2.58.72h5.25c.49 0 1.22-.24 1.24-.76.16-.33.19-.73.09-1.03a.746.746 0 0 0-.38-.45h-.05c-.13 0-.44-.26-.61-.44-.09-.09-.18-.19-.26-.28-.32-.35-.59-.66-1.17-.67-.6-.2-.6-.21-.6-1.48.24-1.91 1.68-3.62 3.6-4.26.41-.2 1.02-.41 1.63-.62-.36 1.29.07 2.41 1.68 4.48.08.08.19.16.29.24.16.12.36.27.36.37v.03l.02.03c4.17 5.56 4.65 5.52 12.64 4.84.77 0 1.24-.53 1.24-1.02 0-.53-.28-.99-.73-1.23-.22-.21-.6-.42-.68-.46-.47-.47-.95-.7-1.42-.7-2.29-.23-3.83-1.62-4.71-4.27l-.02-.04c-.17-.18.04-.62.24-1.01.45-.45 1.13-1.12 1.8-1.58 3.16-2.26 3.67-2.98 5.24-6.34 4.73 2.21 10.78 2.47 14.96 2.48.79 1.64.27 3.52-.34 5.7l-.16.57c-.09.34-.19.67-.28 1-.62 2.13-1.2 4.15-.4 6.35.01.68.65 1 1.24 1h8.22c.5 0 .98-.25 1.21-.49l.03-.03v-1.22c-.2-.6-.86-1.01-1.49-1.41-.13-.08-.26-.16-.4-.25-.39-.19-.95-.56-1.09-.65-.16-1.07.39-2.43.96-3.88.14-.35.28-.7.41-1.04.09-.18.15-.33.18-.46l2.59 8.42c.01.5.73 1 1.24 1h9.36c.46 0 .98 0 1.23-.51v-1.22l-.07-.11c-.5-.76-1.78-2.71-4.42-2.71-.14 0-.29 0-.43.02-.32.1-.58.11-.78 0-.2-.1-.35-.3-.46-.61v-.71c-.46-1.12-.46-2-.46-2.92.43-3.88.88-7.9 2.51-11.62.99-2.57 1.74-5.56 2.29-9.15.04-.19.08-.38.12-.56.18-.89.34-1.66.34-2.41.22-1.56 1.59-2.65 3.32-2.65h2.52c1.66-.18 3.96-.74 5.53-2.31 1.22-1.02 1.86-2.7 1.86-4.89-.23-1.17-1.38-2.12-2.36-2.36ZM58.2 55.49c-.22 1.08-.05 2.42.45 3.69v.68c.19 1.15.71 1.89 1.69 2.39h-2.65l-3.63-12.26c-.23-.68-.68-.98-1.47-.98h-.03c-.72.25-1.21.74-1.21 1.24 0 1.35-.69 2.96-1.36 4.52-.73 1.65-1.61 4.1-1.61 6.43 0 .63.19.9.54 1.27H45.6c-.19-1.5.23-3.04.92-4.88 1.1-2.87 2.11-6.18 0-8.99-.25-.51-.76-.51-1.21-.51h-.02c-5.6-.22-11.39-.46-15.71-2.95h-.02l-1.21-.01-.03.03c-.07.07-.17.15-.27.22-.22.17-.43.32-.45.51-2.07 4.36-2.29 4.55-4.98 6.79-.92.69-1.61 1.38-2.29 2.29-.72.72-1.18 2.13-.71 3.07.63 2.1 1.66 3.64 3.05 4.59-1.64-.31-2.37-1.27-4.41-3.92l-.05-.06c-.02-.14-.14-.26-.26-.38-.09-.09-.2-.2-.2-.27v-.04l-.02-.03c-1.19-1.49-1.19-2.87 0-4.22l1.39-2.08v-.03c0-.08.12-.26.21-.4.12-.18.24-.35.25-.5.26-.8-.1-1.3-.49-1.69l-.49-.49h-1.23c-.5.26-.94.48-.97.76-1.19 2.14-3.13 3.22-5.87 4.27-2.71.9-4.85 3.41-5.32 6.26 0 .1 0 .22-.01.35-.03.72-.08 1.79.59 2.75h-2l-.21-1.04v-.44c.23-1.15.23-2.06.23-3.22v-2.74c0-1.09.42-1.75 1.55-2.42 4.18-2.32 5.99-5.57 5.53-9.91 0-.23-.02-.47-.05-.73-.05-.53-.1-1.08.04-1.52V40.19c.69-2.78 2.78-5.46 5.43-7.01 1.95-1.08 3.96-1.59 6.34-1.59 2 0 3.81.22 5.46.46 6.63 1.14 12.3.49 17.86-2.06 2.02-.67 4.93-3.08 6.82-5.63.67.87 1.34 1.53 2.23 2.2.69.46 1.16.69 1.85.92 1.17.47 2.56.47 3.73 0 1.21-.48 1.21-1.68 1.21-3.06v-4.09a.8.8 0 0 0-.11-.75c-.22-.31-.67-.5-1.13-.5-.71 0-1.47.48-1.47 1.24v5.15h-1.02c-.21-.11-.37-.21-.54-.32-.17-.11-.35-.23-.57-.34-1.67-1.25-2.48-2.8-2.25-4.23.42-1.48 1.86-2.62 4.5-3.59 2.3-.84 4.74-.76 7.47.23 1.26.42 1.93 1.22 2.46 2.02.62.82 1.55 2.07 3.74 2.55h1.12c.66.22 1.35.45 2.03.46.2.19.52.36.64.42.19.86-.24 1.94-1.12 2.83s-2.16 1.34-3.58 1.34h-2.51c-2.98 0-5.57 2.1-6.03 4.87-.21.84-.46 2.04-.46 2.98-.45 2.91-.91 5.92-2.05 8.65-1.69 4.1-2.34 8.43-2.74 12.12Z"/><path d="M67.2 23.65c.97 0 1.7-.73 1.7-1.7s-.73-1.7-1.7-1.7-1.7.73-1.7 1.7.73 1.7 1.7 1.7ZM24.05 34.86h-.44c-1.27-.21-2.66-.04-3.93.46-1.77.66-3.2 2.01-3.93 3.69l-.21.21-.02.03c-.16.31-.12.78.08 1.11.16.26.41.4.69.4h.46c.49 0 1.23-.49 1.24-1.22.48-.95 1.41-1.79 2.43-2.21h2.93c.73.23 1.44-.44 1.7-.97.13-.26.08-.64-.13-.97-.21-.34-.54-.55-.88-.55Z"/></svg>