<svg xmlns="http://www.w3.org/2000/svg" fill="#01b2aa" viewBox="0 0 80 80"><path d="m75.68 46.12-.25-.02-4.33-1.38-4.43-6.64c-1.07-1.51-2.8-2.37-4.73-2.37h-7.43V25.43c0-1.83-1.41-3.16-3.36-3.16H41.07v-.1c0-2.3-2.06-4.18-4.58-4.18H19.38c-2.61 0-4.58 1.8-4.58 4.18v.1H4.71c-1.85 0-3.36 1.42-3.36 3.16v30.14c0 1.83 1.41 3.16 3.36 3.16h6.72s.09 0 .13.01c.89 2.01 3.48 3.24 5.37 3.24s3.59-.8 4.7-2.13l.19-.19.17.17c.89 1.06 2.14 2.15 4.72 2.15 2.35 0 4.41-1.27 5.29-3.26h30.55s.09 0 .12.01c.86 1.94 3.02 3.24 5.37 3.24s4.41-1.27 5.29-3.26h4.48c.77 0 1.12-.54 1.12-.92v-7.74c0-1.74-1.28-3.3-3.26-3.96Zm-7.63 7.12c2.3 0 3.97 1.5 3.97 3.56s-1.78 3.56-3.97 3.56-3.77-1.53-3.77-3.56 1.55-3.56 3.77-3.56Zm.36-8.88.24.32h-7.02l-1.02-6.82v-.3h1.32c.92 0 1.83.37 2.55 1.02h-.08l4.01 5.79Zm6.97 7.86h1.53v4.27h-.41v.41h-2.03v-.1c0-3.03-2.64-5.4-6.01-5.4s-6.01 2.37-6.01 5.4v.1h-7.74V37.55h4.28l1.02 8.04c0 .57.34.92.92.92h9.53l4.62 1.4c.91.36 1.84 1.27 1.84 2.16v.3h-1.53c-.57 0-.92.53-.92.92s.35.92.92.92ZM26.7 53.24c2.15 0 3.77 1.53 3.77 3.56s-1.55 3.56-3.77 3.56-3.97-1.5-3.97-3.56 1.78-3.56 3.97-3.56Zm-.4-1.63c-1.83 0-3.6.8-4.7 2.13l-.19.19-.17-.17a9.91 9.91 0 0 1-.33-.41c-.79-1.01-1.37-1.74-4.39-1.74-3.37 0-6.01 2.37-6.01 5.4v.1H4.3c-.64 0-1.32-.46-1.32-1.32V25.44c0-.86.68-1.32 1.32-1.32h10.08v.1c0 2.3 2.06 4.18 4.58 4.18h17.11c2.77 0 4.79-1.76 4.79-4.18v-.1h9.88c.76 0 1.53.41 1.53 1.32V56.9h-.41v.2H32.31V57c0-2.98-2.7-5.4-6.01-5.4Zm-9.58 1.63c2.3 0 3.97 1.5 3.97 3.56s-1.78 3.56-3.97 3.56-3.77-1.53-3.77-3.56 1.55-3.56 3.77-3.56Zm22.1-29.02c0 1.29-1.14 2.34-2.55 2.34H19.16c-1.37 0-2.75-.8-2.75-2.34v-2.24c0-1.25 1.28-2.34 2.75-2.34h17.11c1.25 0 2.55.88 2.55 2.34v2.24Z"/><path d="M46.36 47.84c0-.39-.55-.92-1.12-.92h-1.53v-7.33l.2-.02c1.37-.46 2.25-1.61 2.25-2.94v-4.48c0-.39-.55-.92-1.12-.92H10.82c-.77 0-1.12.54-1.12.92v4.48c0 1.29.8 2.42 2.21 3.13l.03 7.16h-1.32c-.77 0-1.12.54-1.12.92s.55.92 1.12.92h34.62c.77 0 1.12-.54 1.12-.92Zm-7.13-11.2c0 .91-.77 1.32-1.53 1.32s-1.53-.41-1.53-1.32v-3.56h3.05v3.56Zm-4.89 0c0 .91-.77 1.32-1.53 1.32s-1.53-.41-1.53-1.32v-3.56h3.05v3.56Zm-4.89 0c0 .91-.77 1.32-1.53 1.32s-1.53-.41-1.53-1.32v-3.56h3.05v3.56ZM13.77 39.8h.1l.14-.03c.38-.19.75-.38 1-.58h.54c.44.53 1.19.81 2.19.81.89 0 1.54-.42 2.14-.82h.56c.44.54 1.19.82 2.19.82.89 0 1.54-.42 2.14-.82h.56c.44.54 1.19.82 2.19.82.89 0 1.54-.42 2.14-.82h.56c.44.54 1.19.82 2.19.82.89 0 1.54-.42 2.14-.82h.56c.44.54 1.19.82 2.19.82.89 0 1.54-.42 2.14-.82h.6c.25.21.61.39 1 .59l.24.03v7.13h-.23l-.2.2H13.77V39.8Zm10.59-3.16c0 .85-.47 1.32-1.32 1.32-.76 0-1.53-.41-1.53-1.32v-3.56h2.85v3.56Zm-4.89 0c0 .85-.9 1.32-1.53 1.32s-1.32-.46-1.32-1.32v-3.56h2.85v3.56Zm-7.74-3.56h3.05v3.56c0 .91-.77 1.32-1.53 1.32s-1.53-.41-1.53-1.32v-3.56Zm29.33 0h2.85v3.56c0 .85-.9 1.32-1.53 1.32s-1.32-.46-1.32-1.32v-3.56ZM16.01 56.09h1.84v1.43h-1.84zM25.79 56.09h1.83v1.43h-1.83zM67.33 56.09h1.83v1.43h-1.83z"/></svg>