<svg xmlns="http://www.w3.org/2000/svg" fill="#01b2aa" viewBox="0 0 80 80"><path d="M26.66 73.86v-.03h-7.53V16.27h28.44c.53 0 1.11-.51 1.11-1.34s-.58-1.34-1.11-1.34H27.29l6.22-1.65c.25-.01.49-.16.66-.4.25-.34.32-.78.19-1.19 0-.34-.16-.62-.43-.79-.29-.18-.68-.2-.96-.05l-15.43 4.31c-.53.02-.85.51-.85 1.34v60c0 .83.58 1.34 1.11 1.34h8.64c.53 0 1.11-.51 1.11-1.34 0-.71-.42-1.19-.88-1.31Z"/><path d="M61.43 13.86v-.03h-3.66V4.48c0-.24 0-.81-.57-1.09l-.09-.02s-.09-.02-.15-.03c-.18-.05-.45-.14-.81.04L36.63 8.83c-.24.01-.48.16-.66.4-.25.34-.32.78-.19 1.19 0 .34.16.62.43.79.29.18.68.2.96.06l18.16-4.93v7.72h-4.12c-.53 0-1.11.51-1.11 1.34s.58 1.34 1.11 1.34h8.89v57.33H30.3c-.53 0-1.11.51-1.11 1.34s.58 1.34 1.11 1.34h30.91c.53 0 1.11-.51 1.11-1.34V15.16c0-.71-.42-1.19-.88-1.31Z"/><path d="m32.94 39.46.23.23h.08c.65 0 1.33 0 2.01-.4l2.95 3.38-6.24 6.91c-.26.26-.4.59-.4.94s.14.68.4.94c.53.53 1.12.53 1.65 0l6.22-6.88 6.22 6.89c.27.27.54.4.82.4s.56-.13.82-.4.4-.59.4-.94-.14-.68-.39-.93l-6.24-6.91 2.47-2.68c.5.38 1.16.38 1.8.38h.3c2.99-.24 6.03-3.77 7.05-4.96.14-.16.23-.27.29-.33.29-.29.53-.84.04-1.82l-.04-.05c-.56-.56-1.13-.27-1.59-.04l-.07.05c-.6.75-3.69 4.47-5.98 4.47l5.14-5.57c.53-.53.53-1.34 0-1.87s-1.12-.53-1.65 0l-5.11 5.53c.05-2.13 2.82-5.43 4.03-6.39.53-.53.53-1.34 0-1.87s-1.12-.53-1.65 0l-.08.08c-1.77 1.75-4.75 5.15-4.75 8.25 0 .87 0 1.56.4 2.25L39.6 40.8l-2.95-3.37c.48-1.01.62-2.14.42-3.15 0-1.7-1.3-3.52-1.86-4.21-1.26-1.76-2.99-2.38-4.25-2.58-1.41 0-2.61.48-3.55 1.42-.9.9-1.42 2.28-1.42 3.78s.81 3.16 2.33 4.69c1.07 1.07 2.44 1.84 3.78 2.1h.83Zm-2.96-3.98c-.87-.87-1.43-1.85-1.52-2.61h.22v-.2c0-.85.21-1.49.62-1.9.53-.53 1.16-.85 1.68-.85.83 0 1.91.64 2.57 1.51 1.35 1.8 1.74 3.94.91 4.98-.27.33-.68.52-1.21.55-1.03.05-2.32-.52-3.27-1.48ZM49.39 59.46c.53 0 1.11-.51 1.11-1.34s-.58-1.34-1.11-1.34H29.84c-.53 0-1.11.51-1.11 1.34s.58 1.34 1.11 1.34h19.55ZM33.25 62.69c-.53 0-1.11.51-1.11 1.34s.58 1.34 1.11 1.34h12.73c.53 0 1.11-.51 1.11-1.34s-.58-1.34-1.11-1.34H33.25Z"/></svg>