<svg xmlns="http://www.w3.org/2000/svg" fill="#01b2aa" viewBox="0 0 80 80"><path d="M27.72 73.23c-.4.18-.78.35-1.06.35v2c.7 0 1.32-.28 1.87-.52.21-.1.43-.19.64-.26l-.63-1.9c-.27.09-.55.21-.82.33ZM9.842 62.598l1.387-1.441 6.35 6.106-1.386 1.442z"/><path d="m76.07 15.46 2.87-2.71-9.52-8.95-2.91 2.74-1.8-1.62-1.34 1.49 1.68 1.51-1.68 1.59-1.83-1.65-1.34 1.49 1.71 1.54-2.04 1.93v2.93l-11.41 10.7 1.37 1.46 11.04-10.35 3.43 3.26-32.18 30.09a7.9 7.9 0 0 0-3.35-3.12l19.35-18.17-1.37-1.46-3.38 3.17c-6.54-3.55-14.69-2.7-20.1 2.23-.84.84-1.78 1.95-2.78 3.28l-.06.09c-1.4 2.33-3.67 4.04-6.27 4.69-2.83.85-5.34 2.24-7.48 4.13-3.39 3.15-5.29 7.41-5.33 11.98-.04 4.76 1.98 9.47 5.57 12.93 3.79 3.58 8.97 5.57 14.25 5.57.9 0 1.8-.06 2.69-.17l-.26-1.98c-5.59.73-11.31-1.09-15.3-4.86-3.23-3.12-4.99-7.19-4.95-11.47.04-4.02 1.7-7.76 4.67-10.52 1.9-1.69 4.16-2.93 6.66-3.69 3.05-.76 5.76-2.78 7.43-5.54.92-1.23 1.81-2.27 2.53-3 4.6-4.18 11.49-5.02 17.19-2.23l-15.12 14.2.14.15c-.54-.11-1.09-.18-1.66-.18-4.25 0-7.84 3.37-7.84 7.35s3.59 7.35 7.84 7.35 7.84-3.37 7.84-7.35c0-.47-.05-.93-.15-1.38L48.29 38.5c3.16 5.22 2.36 11.84-1.98 15.99-1.15.92-2.29 1.61-3.51 2.34-2.92 1.34-5.05 3.77-5.86 6.67-.85 2.13-2.01 4.55-4.05 6.36-.31.23-.6.47-.88.7-.58.47-1.08.88-1.65 1.16l.9 1.79c.77-.39 1.38-.88 2.02-1.4.26-.21.53-.43.88-.7 2.43-2.16 3.72-4.86 4.66-7.22l.04-.11c.65-2.37 2.41-4.36 4.83-5.46l.12-.06c1.22-.74 2.49-1.5 3.83-2.57 5.2-4.95 6.06-12.8 2.16-18.88l16.36-15.3h3.18l2.01-1.89 1.82 1.63 1.34-1.49-1.69-1.52 1.81-1.71 1.72 1.54 1.34-1.49-1.59-1.43ZM25.19 59.65c-3.11 0-5.84-2.5-5.84-5.35s2.73-5.35 5.84-5.35 5.84 2.5 5.84 5.35-2.73 5.35-5.84 5.35Zm43.34-39.83h-2.38l-4.29-4.07v-2.07l7.55-7.12 6.6 6.2-7.49 7.06ZM54.25 63.84c-.44-.18-.92-.28-1.44-.28-1.96 0-3.44 1.38-3.44 3.2s1.48 3.2 3.44 3.2c1.83 0 3.44-1.5 3.44-3.2v-7.73l9.24-1.81v4.42c-.44-.18-.92-.28-1.44-.28-1.96 0-3.44 1.38-3.44 3.2s1.48 3.2 3.44 3.2c1.83 0 3.44-1.5 3.44-3.2 0-.08-.02-.16-.02-.24h.02V50.4l-13.24 2.59v10.86Zm-1.45 4.12c-.86 0-1.44-.48-1.44-1.2s.58-1.2 1.44-1.2 1.44.48 1.44 1.2c0 .61-.71 1.2-1.44 1.2Zm11.24-2.2c-.86 0-1.44-.48-1.44-1.2s.58-1.2 1.44-1.2 1.44.48 1.44 1.2c0 .61-.71 1.2-1.44 1.2Zm1.45-12.94v2.36l-9.24 1.81v-2.36l9.24-1.81ZM15.18 29.39c1.83 0 3.44-1.5 3.44-3.2v-7.73l9.24-1.81v4.34c-.37-.12-.77-.2-1.2-.2-1.96 0-3.44 1.38-3.44 3.2s1.48 3.2 3.44 3.2c1.83 0 3.44-1.5 3.44-3.2 0-.44-.09-.84-.24-1.21V9.81l-5.85 1.23.41 1.96 3.44-.72v2.34l-9.24 1.81v-2.34l3.56-.59-.33-1.97-5.23.87v10.88c-.44-.18-.92-.28-1.44-.28-1.96 0-3.44 1.38-3.44 3.2s1.48 3.2 3.44 3.2Zm11.48-4.2c-.86 0-1.44-.48-1.44-1.2s.58-1.2 1.44-1.2c.54 0 .95.21 1.2.53v.43h.19c.02.08.05.15.05.24 0 .6-.71 1.2-1.44 1.2ZM15.18 25c.86 0 1.44.48 1.44 1.2 0 .6-.71 1.2-1.44 1.2-.86 0-1.44-.48-1.44-1.2s.58-1.2 1.44-1.2ZM73.55 67.98h2v2.2h-2zM73.55 74.33h2v2.2h-2zM76.75 71.13h2.2v2h-2.2zM70.15 71.13h2.2v2h-2.2zM4.89 3.47h2v2.2h-2zM4.89 10.07h2v2.2h-2zM8.09 6.87h2.2v2h-2.2zM1.25 6.87h2.2v2h-2.2z"/></svg>