<svg xmlns="http://www.w3.org/2000/svg" fill="#01b2aa" viewBox="0 0 80 80"><path d="M78.4 24.51c-.17-.23-1.08-.36-1.08-.36l-29.2-15.9c-1.72-.86-3.61-1.36-5.18-1.36h-.28V5.56c0-1.52-1.17-2.59-2.85-2.59-1.52 0-2.85 1.21-2.85 2.59v1.33h-.28c-1.71 0-3.3.42-5.2 1.37L2.33 24.12c-.29.07-.54.32-.61.65-.09.38.07.75.41.98.44.72 2.81 4.35 7.01 5.34 3.6 1.03 7.55.12 8.94-.43 3.14 2.3 6.56 3.75 9.64 4.09 3.14.48 6.16.1 8.86-.18l.22-.02v16.17H24.14c-.53 0-1.02.49-1.02 1.02v5.74c0 .54.49 1.02 1.02 1.02h8.77l1.9 5.95-7 10.62v.88l.15.15c.07.07.43.41.88.41h4.44c.52 0 .9-.22 1-.57l3.2-4.8v4.35c0 .54.49 1.02 1.02 1.02h3.39c.53 0 1.02-.49 1.02-1.02v-4.35l3.32 4.97c.07.07.43.41.88.41h4.44c.61 0 1.02-.31 1.02-.76v-.67l-7-10.62 1.9-5.95h8.77c.54 0 1.02-.49 1.02-1.02v-5.74c0-.53-.49-1.02-1.02-1.02H42.39V34.59c2.26.3 4.83.53 6.79.53 0 0 2.62 0 3.49-.09 4.84-.46 8.72-3.44 9.69-4.13.15.03.32.08.52.13 1.8.44 5.14 1.26 8.39.34 2.53-.79 5.46-3.52 6.84-5.15.04-.05.1-.14.14-.19.04-.04.12-.1.15-.15.16-.3.2-1.08 0-1.35ZM39.21 5.8v-.5c0-.24.43-.54.67-.54s.67.29.67.54v1.33H39.2V5.8ZM39 27.45h1.09v23.27H39V27.45ZM33.58 9.31c.43-.13.9-.23 1.4-.3l-14.5 12.57c-.08.04-.19.11-.34.19-1.25.73-5.05 2.93-8.81 3.38-2.54.21-4.62-.11-5.95-.43l28.2-15.41ZM17.13 28.56c-.24.03-.55.11-.97.21-1.59.37-4.55 1.07-6.99.32h-.04c-1.55-.35-2.73-1.19-3.61-2.04 2.11.44 4.06.48 5.91.14 3.99-.5 7.7-2.37 9.48-3.27s.19.19.19.19l-3.99 4.46Zm19.57 4c-2.36.46-6.19.66-9.34.17l-.58-.09c-3.51-.59-6.39-2.47-7.64-3.41l3.53-3.97c1.88 1.19 3.93 2.02 6.08 2.45 2.65.48 5.47.32 7.94.06v4.78Zm-7.48-6.88h-.03c-3.05-.44-5.34-2.2-6.59-3.19L38.18 8.92h.1v16.56c-1.78.29-5.78.9-9.05.2Zm2.75 49.04h-1.66l5.85-8.65h1.42l-5.61 8.65Zm6.3-10.95h-2.01l-1.74-5.23h3.75v5.23Zm1.82 10.95H39v-6.93l.54-.95.54.95v6.93Zm8.95 0h-1.66l-5.61-8.65h1.42l5.85 8.65Zm-8.47-10.95v-5.23h3.75l-1.74 5.23h-2.02ZM54.7 53.02v3.44H24.65v-3.44H54.7ZM40.83 25.5V8.93h.1L56.5 22.49c-1.25.94-3.54 2.53-6.61 3.19-3.41.68-7.22.15-9.05-.18Zm18.85 4.11c-1.49.97-4.18 2.74-7.37 3.29s-.58.09-.58.09c-3.12.48-7 .05-9.34-.21v-4.79c.46.02.96.06 1.47.11.8.07 1.62.14 2.46.14 1.6 0 2.66 0 4.01-.27 2.15-.43 4.19-1.25 6.08-2.45l3.5 3.94c-.07.05-.15.1-.23.15Zm10.5-.52c-3.28 1.01-7.14-.02-7.87-.43l-4.07-4.55.17-.17c1.79 1.04 5.67 3.02 9.53 3.26 1.95.18 4.02.12 5.68-.13-.89.77-2.02 1.55-3.44 2.03Zm-2.13-3.94c-3.78-.44-7.58-2.65-8.83-3.38a5.18 5.18 0 0 0-.34-.19L44.46 9.08c.99.19 1.93.53 2.68.83l27.02 14.76c-1.59.39-3.85.69-6.11.48Z"/><path d="M74.08 41.32c-.81-.2-2.33.01-3.24.62-.85.57-1.47 1.19-1.77 2.39l-3.82 15.79h-10.3c-2.11 0-3.85 1.5-4.15 3.63 0 .45.09 1.98 1.19 2.7.57.57 1.75 1.19 2.96 1.19h.47l-1.23 8.37v1.02h6.24c.54 0 1.02-.49 1.02-1.02v-8.37h2.52l2.54 8.6c.12.24.45.8.97.8h5.98v-1.02l-3.47-8.29c.96-.37 1.74-1.18 2.38-2.45l4.73-18.87c.31-1.09.22-2.55-.68-3.61-.64-.75-1.39-1.24-2.32-1.47ZM59.4 74.72h-2.83l1.15-7.35h1.68v7.35Zm11.48 0h-2.51l-2.07-7.35h1.36l3.21 7.35Zm3.67-29.62-4.7 18.79v.12c-.01.84-1.05 1.07-1.6 1.07H54.94c-.35 0-1 0-1.12-.25l-.09-.13c-.38-.38-.38-.73-.38-1.21 0-.74.81-1.33 1.85-1.33h10.96c.66 0 1-.32 1.02-.96l4.16-16.64c.08-.3.33-.75.69-1.06.57-.5 1.89-.33 2.28.27.23.36.36.86.24 1.34ZM28.3 63.33c-.09-2.02-1.8-3.47-4.15-3.47h-10.3l-3.81-15.74c-.04-1.15-1.26-2.09-1.79-2.44-.91-.61-2.26-.7-3.02-.59-1.06.15-1.9.88-2.45 1.66-.61.85-.78 1.87-.5 2.86l4.69 18.76c.25 1.24 1.12 2.16 2.41 2.59l-3.43 8.08-.04 1.22h5.98c.65 0 .99-.32 1.02-.94l2.48-8.45h2.52v8.37c0 .53.49 1.02 1.02 1.02h6.24v-1.09l-1.23-8.3h.46c.51 0 1.09-.04 1.5-.17.32-.09.85-.26 1.13-.44.95-.62 1.18-1.68 1.24-2.34l.02-.59ZM10.99 74.72H8.48l3.22-7.35h1.36l-2.07 7.35Zm9.23 0v-7.35h1.68l1.15 7.35h-2.83Zm5.15-10.02c-.38.38-.73.38-1.21.38H10.85c-.78 0-1.4-.6-1.61-1.21L4.55 45.1c-.09-.35-.01-.73.22-1.06.22-.32.54-.61.93-.67.11-.02.41-.03.53-.03.52 0 .69.16.81.24.39.28.5.57.74 1.03l4.15 16.6c.04.5.51.95 1.02.95h10.96c1.04 0 1.85.58 1.85 1.33 0 .49 0 .84-.38 1.21Z"/></svg>