<svg xmlns="http://www.w3.org/2000/svg" fill="#01b2aa" viewBox="0 0 80 80"><path d="M65.58 6.8c-11.56-8.87-33.24-1.09-47.33 17C12.1 31.82 8.12 42.31 7.33 52.57c-.76 9.16 1.32 17.02 5.48 20.85h-.33l.81.63c2.44 1.88 5.94 2.83 10.08 2.83 3.65 0 7.8-.74 12.18-2.22 9.77-3.31 18.91-9.73 25.08-17.62C74.69 39 76.96 16 65.59 6.79Zm-17.5-.36c.28-.08.55-.15.82-.23L70.05 22.6v5.47L43.85 7.72c1.44-.51 2.85-.9 4.22-1.28Zm20.95 11.71L53.17 5.84c3.68.07 7.4.6 10.4 3.1 2.7 2.03 4.53 5.12 5.46 9.21ZM10.14 57.19v-5.67l25.67 20.02c-1.44.51-2.85.9-4.23 1.28-.36.1-.72.2-1.07.3L10.14 57.19Zm28.82 13.53L10.7 48.74c1.37-8.58 4.81-16.5 9.95-22.92 5.7-7.26 12.93-13.02 20.36-16.24l28.47 22.26c-1.37 7.97-5.18 16.38-10.75 23.72-5.17 6.65-12.19 12.03-19.78 15.16Zm-12.62 3.04c-5.21.4-9-.32-11.02-2.11l-.1-.09h-.27c-2.36-1.95-4.09-5.73-4.71-10.24l16.1 12.44Z"/><path d="m50.52 30.56 2.92-3.66c.71-.71.34-1.45.07-1.99-.14-.28-.63-.87-2.06-.16l-3.08 3.8-3.66-2.68c-.71-.71-1.45-.34-1.99-.07l-.09.07c-.71.71-.34 1.45-.07 1.99l3.79 2.83-2.22 2.89-3.65-2.67c-.71-.71-1.45-.34-1.99-.07l-.09.07c-.71.71-.34 1.45-.07 1.99l3.79 2.82-2.22 2.89-3.65-2.67c-.71-.71-1.45-.34-1.99-.07l-.09.07c-.71.71-.34 1.45-.07 1.99l3.79 2.82-2.22 2.89-3.65-2.67c-.71-.71-1.45-.34-1.99-.07l-.09.07c-.71.71-.34 1.45-.07 1.99l3.79 2.83-2.22 2.89-3.67-2.69c-.7-.68-1.44-.31-1.97-.05l-.09.07c-.71.71-.34 1.45-.07 1.99l3.78 2.82-2.92 3.66c-.71.71-.34 1.45-.07 1.99.09.18.33.5.88.5.29 0 .68-.09 1.18-.34l3.08-3.8 3.66 2.68c.71.71 1.45.34 1.99.07l.09-.07c.71-.71.34-1.45.07-1.99l-3.79-2.83 2.22-2.89 3.65 2.67c.71.71 1.45.34 1.99.07.29-.14.87-.63.16-2.06l-3.79-2.83 2.22-2.89 3.65 2.67c.71.71 1.45.34 1.99.07a.9.9 0 0 0 .45-.51c.16-.48-.07-1.11-.29-1.55l-3.79-2.82 2.22-2.89 3.65 2.67c.71.71 1.45.34 1.99.07l.09-.07c.71-.71.34-1.45.07-1.99l-3.79-2.82 2.22-2.89 3.65 2.67c.71.71 1.45.34 1.99.07.29-.14.87-.63.16-2.06l-3.78-2.82Z"/></svg>