<svg xmlns="http://www.w3.org/2000/svg" viewBox="0 0 993 612"><g fill="#faf7f5" style="opacity:.7"><path d="M968.79 580.64c-.1-1.37.2-2.11 1.66-2.32 5.68-.95 10.57-3.69 14.78-7.91 4.89-4.85 7.83-10.86 9-17.93.1-.95.29-1.48 1.37-1.48 4.41.11 8.81 0 13.21 0 .98 0 1.17.32 1.08 1.37-.78 7.07-2.74 13.71-6.17 19.72-7.73 13.5-19.09 21.09-33.57 23.2-.98.11-1.27-.1-1.27-1.16v-7.17c0-2 0-4.22-.1-6.33Zm0-80.35c-.1-1.37.2-2.11 1.66-2.32 5.68-.95 10.57-3.69 14.78-7.91 4.89-4.85 7.83-10.86 9-17.93.1-.95.29-1.48 1.37-1.48 4.41.1 8.81 0 13.21 0 .98 0 1.17.32 1.08 1.37-.78 7.06-2.74 13.71-6.17 19.72-7.73 13.5-19.09 21.09-33.57 23.2-.98.1-1.27-.11-1.27-1.16v-7.17c0-2.11 0-4.22-.1-6.33Zm0-80.46c-.1-1.37.2-2.11 1.66-2.32 5.68-.95 10.57-3.69 14.78-7.91 4.89-4.85 7.83-10.86 9-17.93.1-.95.29-1.48 1.37-1.48 4.41.1 8.81 0 13.21 0 .98 0 1.17.32 1.08 1.37-.78 7.06-2.74 13.71-6.17 19.72-7.73 13.5-19.09 21.09-33.57 23.2-.98.11-1.27-.11-1.27-1.16v-7.17c0-2 0-4.22-.1-6.33Zm0-80.35c-.1-1.37.2-2.11 1.66-2.32 5.68-.95 10.57-3.69 14.78-7.91 4.89-4.85 7.83-10.86 9-17.93.1-.95.29-1.48 1.37-1.48 4.41.11 8.81 0 13.21 0 .98 0 1.17.32 1.08 1.37-.78 7.07-2.74 13.71-6.17 19.72-7.73 13.5-19.09 21.09-33.57 23.2-.98.11-1.27-.1-1.27-1.16v-7.17c0-2.11 0-4.22-.1-6.33Zm0-80.46c-.1-1.37.2-2.11 1.66-2.32 5.68-.95 10.57-3.69 14.78-7.91 4.89-4.85 7.83-10.86 9-17.93.1-.95.29-1.48 1.37-1.48 4.41.11 8.81.11 13.21 0 .98 0 1.17.32 1.08 1.37-.78 7.06-2.74 13.71-6.17 19.72-7.73 13.5-19.09 21.09-33.57 23.2-.98.11-1.27-.1-1.27-1.16v-7.17c0-2 0-4.22-.1-6.33Zm0-80.35c-.1-1.37.2-2.11 1.66-2.32 5.68-.95 10.57-3.69 14.78-7.91 4.89-4.85 7.83-10.86 9-17.93.1-.95.29-1.48 1.37-1.48 4.41.11 8.81 0 13.21 0 .98 0 1.17.32 1.08 1.37-.78 7.07-2.74 13.71-6.17 19.72-7.73 13.5-19.09 21.09-33.57 23.2-.98.11-1.27-.1-1.27-1.16v-7.17c0-2.11 0-4.22-.1-6.33Zm0-80.45c-.1-1.37.2-2.11 1.66-2.32 5.68-.95 10.57-3.69 14.78-7.91 4.89-4.85 7.83-10.86 9-17.93.1-.95.29-1.48 1.37-1.48 4.41.11 8.81 0 13.21 0 .98 0 1.17.32 1.08 1.37-.78 7.07-2.74 13.71-6.17 19.72-7.73 13.5-19.09 21.09-33.57 23.2-.98.11-1.27-.1-1.27-1.16v-7.17c0-2 0-4.22-.1-6.33Zm0-80.35c-.1-1.37.2-2.11 1.66-2.32 5.68-.95 10.57-3.69 14.78-7.91 4.89-4.85 7.83-10.86 9-17.93.1-.95.29-1.48 1.37-1.48 4.41.11 8.81 0 13.21 0 .98 0 1.17.32 1.08 1.37-.78 7.06-2.74 13.71-6.17 19.72-7.73 13.5-19.09 21.09-33.57 23.2-.98.1-1.27-.11-1.27-1.16v-7.17c0-2.11 0-4.22-.1-6.33Zm-7.04 562.98c-.1 4.74 0 9.49 0 14.23 0 1.06-.29 1.27-1.27 1.37-3.23.32-6.17 1.58-9.01 3.16-8.42 4.96-13.51 12.55-15.27 22.67-.2 1.16-.59 1.48-1.66 1.48-2.06-.11-4.21 0-6.26 0h-6.46c-.78 0-1.47 0-1.27-1.26.88-7.07 2.74-13.71 6.17-19.82 5.09-8.96 12.14-15.61 21.04-19.72 4.01-1.9 8.22-3.16 12.63-3.37 1.08 0 1.37.21 1.37 1.26Zm-67.74-.21c-.1-1.37.2-2.11 1.66-2.32 5.68-.95 10.57-3.69 14.78-7.91 4.89-4.85 7.83-10.86 9-17.93.1-.95.29-1.48 1.37-1.48 4.41.11 8.81 0 13.21 0 .98 0 1.17.32 1.08 1.37-.78 7.07-2.74 13.71-6.17 19.72-7.73 13.5-19.09 21.09-33.57 23.2-.98.11-1.27-.1-1.27-1.16v-7.17c-.1-2 0-4.22-.1-6.33Zm67.74-80.25c-.1 4.75 0 9.49 0 14.24 0 1.05-.29 1.26-1.27 1.37-3.23.32-6.17 1.58-9.01 3.16-8.42 4.96-13.51 12.55-15.27 22.67-.2 1.16-.59 1.48-1.66 1.48-2.06-.1-4.21 0-6.26 0h-6.46c-.78 0-1.47 0-1.27-1.26.88-7.07 2.74-13.71 6.17-19.82 5.09-8.96 12.14-15.61 21.04-19.72 4.01-1.9 8.22-3.16 12.63-3.37 1.08.1 1.37.21 1.37 1.26Zm-67.74-.1c-.1-1.37.2-2.11 1.66-2.32 5.68-.95 10.57-3.69 14.78-7.91 4.89-4.85 7.83-10.86 9-17.93.1-.95.29-1.48 1.37-1.48 4.41.1 8.81 0 13.21 0 .98 0 1.17.32 1.08 1.37-.78 7.06-2.74 13.71-6.17 19.72-7.73 13.5-19.09 21.09-33.57 23.2-.98.1-1.27-.11-1.27-1.16v-7.17c-.1-2.11 0-4.22-.1-6.33Zm67.74-80.25c-.1 4.75 0 9.49 0 14.24 0 1.05-.29 1.26-1.27 1.37-3.23.32-6.17 1.58-9.01 3.16-8.42 4.96-13.51 12.55-15.27 22.67-.2 1.16-.59 1.48-1.66 1.48-2.06-.1-4.21 0-6.26 0h-6.46c-.78 0-1.47 0-1.27-1.26.88-7.07 2.74-13.71 6.17-19.82 5.09-8.96 12.14-15.61 21.04-19.72 4.01-1.9 8.22-3.16 12.63-3.37 1.08 0 1.37.21 1.37 1.26Zm-67.74-.21c-.1-1.37.2-2.11 1.66-2.32 5.68-.95 10.57-3.69 14.78-7.91 4.89-4.85 7.83-10.86 9-17.93.1-.95.29-1.48 1.37-1.48 4.41.1 8.81 0 13.21 0 .98 0 1.17.32 1.08 1.37-.78 7.06-2.74 13.71-6.17 19.72-7.73 13.5-19.09 21.09-33.57 23.2-.98.11-1.27-.11-1.27-1.16v-7.17c-.1-2 0-4.22-.1-6.33Zm67.74-80.25c-.1 4.74 0 9.49 0 14.23 0 1.06-.29 1.27-1.27 1.37-3.23.32-6.17 1.58-9.01 3.16-8.42 4.96-13.51 12.55-15.27 22.67-.2 1.16-.59 1.48-1.66 1.48-2.06-.1-4.21 0-6.26 0h-6.46c-.78 0-1.47 0-1.27-1.26.88-7.07 2.74-13.71 6.17-19.82 5.09-8.96 12.14-15.61 21.04-19.72 4.01-1.9 8.22-3.16 12.63-3.37 1.08.11 1.37.21 1.37 1.27Zm-67.74-.1c-.1-1.37.2-2.11 1.66-2.32 5.68-.95 10.57-3.69 14.78-7.91 4.89-4.85 7.83-10.86 9-17.93.1-.95.29-1.48 1.37-1.48 4.41.11 8.81 0 13.21 0 .98 0 1.17.32 1.08 1.37-.78 7.07-2.74 13.71-6.17 19.72-7.73 13.5-19.09 21.09-33.57 23.2-.98.11-1.27-.1-1.27-1.16v-7.17c-.1-2.11 0-4.22-.1-6.33Zm67.74-80.25c-.1 4.74 0 9.49 0 14.23 0 1.06-.29 1.27-1.27 1.37-3.23.32-6.17 1.58-9.01 3.16-8.42 4.96-13.51 12.55-15.27 22.67-.2 1.16-.59 1.48-1.66 1.48-2.06-.11-4.21 0-6.26 0h-6.46c-.78 0-1.47 0-1.27-1.27.88-7.06 2.74-13.71 6.17-19.82 5.09-8.96 12.14-15.61 21.04-19.72 4.01-1.9 8.22-3.16 12.63-3.37 1.08 0 1.37.21 1.37 1.27Zm-67.74-.21c-.1-1.37.2-2.11 1.66-2.32 5.68-.95 10.57-3.69 14.78-7.91 4.89-4.85 7.83-10.86 9-17.93.1-.95.29-1.48 1.37-1.48 4.41.11 8.81.11 13.21 0 .98 0 1.17.32 1.08 1.37-.78 7.06-2.74 13.71-6.17 19.72-7.73 13.5-19.09 21.09-33.57 23.2-.98.11-1.27-.1-1.27-1.16v-7.17c-.1-2 0-4.22-.1-6.33Zm67.74-80.24c-.1 4.74 0 9.49 0 14.23 0 1.05-.29 1.27-1.27 1.37-3.23.32-6.17 1.58-9.01 3.16-8.42 4.96-13.51 12.55-15.27 22.67-.2 1.16-.59 1.48-1.66 1.48-2.06-.11-4.21 0-6.26 0h-6.46c-.78 0-1.47 0-1.27-1.27.88-7.06 2.74-13.71 6.17-19.82 5.09-8.96 12.14-15.61 21.04-19.72 4.01-1.9 8.22-3.16 12.63-3.37 1.08.11 1.37.21 1.37 1.27Zm-67.74-.11c-.1-1.37.2-2.11 1.66-2.32 5.68-.95 10.57-3.69 14.78-7.91 4.89-4.85 7.83-10.86 9-17.93.1-.95.29-1.48 1.37-1.48 4.41.11 8.81 0 13.21 0 .98 0 1.17.32 1.08 1.37-.78 7.07-2.74 13.71-6.17 19.72-7.73 13.5-19.09 21.09-33.57 23.2-.98.11-1.27-.1-1.27-1.16v-7.17c-.1-2.11 0-4.22-.1-6.33Zm67.74-80.24c-.1 4.74 0 9.49 0 14.23 0 1.05-.29 1.26-1.27 1.37-3.23.32-6.17 1.58-9.01 3.16-8.42 4.96-13.51 12.55-15.27 22.67-.2 1.16-.59 1.48-1.66 1.48-2.06-.11-4.21 0-6.26 0h-6.46c-.78 0-1.47 0-1.27-1.27.88-7.06 2.74-13.71 6.17-19.82 5.09-8.96 12.14-15.61 21.04-19.72 4.01-1.9 8.22-3.16 12.63-3.37 1.08 0 1.37.21 1.37 1.27Zm-67.74-.21c-.1-1.37.2-2.11 1.66-2.32 5.68-.95 10.57-3.69 14.78-7.91 4.89-4.85 7.83-10.86 9-17.93.1-.95.29-1.48 1.37-1.48 4.41.11 8.81 0 13.21 0 .98 0 1.17.32 1.08 1.37-.78 7.07-2.74 13.71-6.17 19.72-7.73 13.5-19.09 21.09-33.57 23.2-.98.11-1.27-.1-1.27-1.16v-7.17c-.1-2 0-4.22-.1-6.33Zm67.74-80.25c-.1 4.75 0 9.49 0 14.23 0 1.06-.29 1.27-1.27 1.37-3.23.32-6.17 1.58-9.01 3.16-8.42 4.96-13.51 12.55-15.27 22.67-.2 1.16-.59 1.48-1.66 1.48-2.06-.11-4.21 0-6.26 0h-6.46c-.78 0-1.47 0-1.27-1.27.88-7.06 2.74-13.71 6.17-19.82 5.09-8.96 12.14-15.61 21.04-19.72 4.01-1.9 8.22-3.16 12.63-3.37 1.08.11 1.37.21 1.37 1.27Zm-67.74-.1c-.1-1.37.2-2.11 1.66-2.32 5.68-.95 10.57-3.69 14.78-7.91 4.89-4.85 7.83-10.86 9-17.93.1-.95.29-1.48 1.37-1.48 4.41.11 8.81 0 13.21 0 .98 0 1.17.32 1.08 1.37-.78 7.06-2.74 13.71-6.17 19.72-7.73 13.5-19.09 21.09-33.57 23.2-.98.1-1.27-.11-1.27-1.16v-7.17c-.1-2.11 0-4.22-.1-6.33Zm-7.04 562.98c-.1 4.74 0 9.49 0 14.23 0 1.06-.29 1.27-1.27 1.37-3.23.32-6.17 1.58-9.01 3.16-8.42 4.96-13.51 12.55-15.27 22.67-.2 1.16-.59 1.48-1.66 1.48-2.06-.11-4.21 0-6.26 0h-6.46c-.78 0-1.47 0-1.27-1.26.88-7.07 2.74-13.71 6.17-19.82 5.09-8.96 12.14-15.61 21.04-19.72 4.01-1.9 8.22-3.16 12.63-3.37 1.08 0 1.37.21 1.37 1.26Zm-67.74-.21c-.1-1.37.2-2.11 1.66-2.32 5.68-.95 10.57-3.69 14.78-7.91 4.89-4.85 7.83-10.86 9.01-17.93.1-.95.29-1.48 1.37-1.48 4.4.11 8.81 0 13.21 0 .98 0 1.17.32 1.08 1.37-.78 7.07-2.74 13.71-6.17 19.72-7.73 13.5-19.09 21.09-33.57 23.2-.98.11-1.27-.1-1.27-1.16v-7.17c-.1-2 0-4.22-.1-6.33Zm67.74-80.25c-.1 4.75 0 9.49 0 14.24 0 1.05-.29 1.26-1.27 1.37-3.23.32-6.17 1.58-9.01 3.16-8.42 4.96-13.51 12.55-15.27 22.67-.2 1.16-.59 1.48-1.66 1.48-2.06-.1-4.21 0-6.26 0h-6.46c-.78 0-1.47 0-1.27-1.26.88-7.07 2.74-13.71 6.17-19.82 5.09-8.96 12.14-15.61 21.04-19.72 4.01-1.9 8.22-3.16 12.63-3.37 1.08.1 1.37.21 1.37 1.26Zm-67.74-.1c-.1-1.37.2-2.11 1.66-2.32 5.68-.95 10.57-3.69 14.78-7.91 4.89-4.85 7.83-10.86 9.01-17.93.1-.95.29-1.48 1.37-1.48 4.4.1 8.81 0 13.21 0 .98 0 1.17.32 1.08 1.37-.78 7.06-2.74 13.71-6.17 19.72-7.73 13.5-19.09 21.09-33.57 23.2-.98.1-1.27-.11-1.27-1.16v-7.17c-.1-2.11 0-4.22-.1-6.33Zm67.74-80.25c-.1 4.75 0 9.49 0 14.24 0 1.05-.29 1.26-1.27 1.37-3.23.32-6.17 1.58-9.01 3.16-8.42 4.96-13.51 12.55-15.27 22.67-.2 1.16-.59 1.48-1.66 1.48-2.06-.1-4.21 0-6.26 0h-6.46c-.78 0-1.47 0-1.27-1.26.88-7.07 2.74-13.71 6.17-19.82 5.09-8.96 12.14-15.61 21.04-19.72 4.01-1.9 8.22-3.16 12.63-3.37 1.08 0 1.37.21 1.37 1.26Zm-67.74-.21c-.1-1.37.2-2.11 1.66-2.32 5.68-.95 10.57-3.69 14.78-7.91 4.89-4.85 7.83-10.86 9.01-17.93.1-.95.29-1.48 1.37-1.48 4.4.1 8.81 0 13.21 0 .98 0 1.17.32 1.08 1.37-.78 7.06-2.74 13.71-6.17 19.72-7.73 13.5-19.09 21.09-33.57 23.2-.98.11-1.27-.11-1.27-1.16v-7.17c-.1-2 0-4.22-.1-6.33Zm67.74-80.25c-.1 4.74 0 9.49 0 14.23 0 1.06-.29 1.27-1.27 1.37-3.23.32-6.17 1.58-9.01 3.16-8.42 4.96-13.51 12.55-15.27 22.67-.2 1.16-.59 1.48-1.66 1.48-2.06-.1-4.21 0-6.26 0h-6.46c-.78 0-1.47 0-1.27-1.26.88-7.07 2.74-13.71 6.17-19.82 5.09-8.96 12.14-15.61 21.04-19.72 4.01-1.9 8.22-3.16 12.63-3.37 1.08.11 1.37.21 1.37 1.27Zm-67.74-.1c-.1-1.37.2-2.11 1.66-2.32 5.68-.95 10.57-3.69 14.78-7.91 4.89-4.85 7.83-10.86 9.01-17.93.1-.95.29-1.48 1.37-1.48 4.4.11 8.81 0 13.21 0 .98 0 1.17.32 1.08 1.37-.78 7.07-2.74 13.71-6.17 19.72-7.73 13.5-19.09 21.09-33.57 23.2-.98.11-1.27-.1-1.27-1.16v-7.17c-.1-2.11 0-4.22-.1-6.33Zm67.74-80.25c-.1 4.74 0 9.49 0 14.23 0 1.06-.29 1.27-1.27 1.37-3.23.32-6.17 1.58-9.01 3.16-8.42 4.96-13.51 12.55-15.27 22.67-.2 1.16-.59 1.48-1.66 1.48-2.06-.11-4.21 0-6.26 0h-6.46c-.78 0-1.47 0-1.27-1.27.88-7.06 2.74-13.71 6.17-19.82 5.09-8.96 12.14-15.61 21.04-19.72 4.01-1.9 8.22-3.16 12.63-3.37 1.08 0 1.37.21 1.37 1.27Zm-67.74-.21c-.1-1.37.2-2.11 1.66-2.32 5.68-.95 10.57-3.69 14.78-7.91 4.89-4.85 7.83-10.86 9.01-17.93.1-.95.29-1.48 1.37-1.48 4.4.11 8.81.11 13.21 0 .98 0 1.17.32 1.08 1.37-.78 7.06-2.74 13.71-6.17 19.72-7.73 13.5-19.09 21.09-33.57 23.2-.98.11-1.27-.1-1.27-1.16v-7.17c-.1-2 0-4.22-.1-6.33Zm67.74-80.24c-.1 4.74 0 9.49 0 14.23 0 1.05-.29 1.27-1.27 1.37-3.23.32-6.17 1.58-9.01 3.16-8.42 4.96-13.51 12.55-15.27 22.67-.2 1.16-.59 1.48-1.66 1.48-2.06-.11-4.21 0-6.26 0h-6.46c-.78 0-1.47 0-1.27-1.27.88-7.06 2.74-13.71 6.17-19.82 5.09-8.96 12.14-15.61 21.04-19.72 4.01-1.9 8.22-3.16 12.63-3.37 1.08.11 1.37.21 1.37 1.27Zm-67.74-.11c-.1-1.37.2-2.11 1.66-2.32 5.68-.95 10.57-3.69 14.78-7.91 4.89-4.85 7.83-10.86 9.01-17.93.1-.95.29-1.48 1.37-1.48 4.4.11 8.81 0 13.21 0 .98 0 1.17.32 1.08 1.37-.78 7.07-2.74 13.71-6.17 19.72-7.73 13.5-19.09 21.09-33.57 23.2-.98.11-1.27-.1-1.27-1.16v-7.17c-.1-2.11 0-4.22-.1-6.33Zm67.74-80.24c-.1 4.74 0 9.49 0 14.23 0 1.05-.29 1.26-1.27 1.37-3.23.32-6.17 1.58-9.01 3.16-8.42 4.96-13.51 12.55-15.27 22.67-.2 1.16-.59 1.48-1.66 1.48-2.06-.11-4.21 0-6.26 0h-6.46c-.78 0-1.47 0-1.27-1.27.88-7.06 2.74-13.71 6.17-19.82 5.09-8.96 12.14-15.61 21.04-19.72 4.01-1.9 8.22-3.16 12.63-3.37 1.08 0 1.37.21 1.37 1.27Zm-67.74-.21c-.1-1.37.2-2.11 1.66-2.32 5.68-.95 10.57-3.69 14.78-7.91 4.89-4.85 7.83-10.86 9.01-17.93.1-.95.29-1.48 1.37-1.48 4.4.11 8.81 0 13.21 0 .98 0 1.17.32 1.08 1.37-.78 7.07-2.74 13.71-6.17 19.72-7.73 13.5-19.09 21.09-33.57 23.2-.98.11-1.27-.1-1.27-1.16v-7.17c-.1-2 0-4.22-.1-6.33Zm67.74-80.25c-.1 4.75 0 9.49 0 14.23 0 1.06-.29 1.27-1.27 1.37-3.23.32-6.17 1.58-9.01 3.16-8.42 4.96-13.51 12.55-15.27 22.67-.2 1.16-.59 1.48-1.66 1.48-2.06-.11-4.21 0-6.26 0h-6.46c-.78 0-1.47 0-1.27-1.27.88-7.06 2.74-13.71 6.17-19.82 5.09-8.96 12.14-15.61 21.04-19.72 4.01-1.9 8.22-3.16 12.63-3.37 1.08.11 1.37.21 1.37 1.27Zm-67.74-.1c-.1-1.37.2-2.11 1.66-2.32 5.68-.95 10.57-3.69 14.78-7.91 4.89-4.85 7.83-10.86 9.01-17.93.1-.95.29-1.48 1.37-1.48 4.4.11 8.81 0 13.21 0 .98 0 1.17.32 1.08 1.37-.78 7.06-2.74 13.71-6.17 19.72-7.73 13.5-19.09 21.09-33.57 23.2-.98.1-1.27-.11-1.27-1.16v-7.17c-.1-2.11 0-4.22-.1-6.33Zm-7.04 562.98c-.1 4.74 0 9.49 0 14.23 0 1.06-.29 1.27-1.27 1.37-3.23.32-6.17 1.58-9.01 3.16-8.42 4.96-13.51 12.55-15.27 22.67-.2 1.16-.59 1.48-1.66 1.48-2.06-.11-4.21 0-6.26 0h-6.46c-.78 0-1.47 0-1.27-1.26.88-7.07 2.74-13.71 6.17-19.82 5.09-8.96 12.14-15.61 21.04-19.72 4.01-1.9 8.22-3.16 12.63-3.37 1.08 0 1.37.21 1.37 1.26Zm-67.73-.21c-.1-1.37.2-2.11 1.66-2.32 5.68-.95 10.57-3.69 14.78-7.91 4.89-4.85 7.83-10.86 9.01-17.93.1-.95.29-1.48 1.37-1.48 4.41.11 8.81 0 13.21 0 .98 0 1.17.32 1.08 1.37-.78 7.07-2.74 13.71-6.17 19.72-7.73 13.5-19.09 21.09-33.57 23.2-.98.11-1.27-.1-1.27-1.16v-7.17c-.1-2 0-4.22-.1-6.33Zm67.73-80.25c-.1 4.75 0 9.49 0 14.24 0 1.05-.29 1.26-1.27 1.37-3.23.32-6.17 1.58-9.01 3.16-8.42 4.96-13.51 12.55-15.27 22.67-.2 1.16-.59 1.48-1.66 1.48-2.06-.1-4.21 0-6.26 0h-6.46c-.78 0-1.47 0-1.27-1.26.88-7.07 2.74-13.71 6.17-19.82 5.09-8.96 12.14-15.61 21.04-19.72 4.01-1.9 8.22-3.16 12.63-3.37 1.08.1 1.37.21 1.37 1.26Zm-67.73-.1c-.1-1.37.2-2.11 1.66-2.32 5.68-.95 10.57-3.69 14.78-7.91 4.89-4.85 7.83-10.86 9.01-17.93.1-.95.29-1.48 1.37-1.48 4.41.1 8.81 0 13.21 0 .98 0 1.17.32 1.08 1.37-.78 7.06-2.74 13.71-6.17 19.72-7.73 13.5-19.09 21.09-33.57 23.2-.98.1-1.27-.11-1.27-1.16v-7.17c-.1-2.11 0-4.22-.1-6.33Zm67.73-80.25c-.1 4.75 0 9.49 0 14.24 0 1.05-.29 1.26-1.27 1.37-3.23.32-6.17 1.58-9.01 3.16-8.42 4.96-13.51 12.55-15.27 22.67-.2 1.16-.59 1.48-1.66 1.48-2.06-.1-4.21 0-6.26 0h-6.46c-.78 0-1.47 0-1.27-1.26.88-7.07 2.74-13.71 6.17-19.82 5.09-8.96 12.14-15.61 21.04-19.72 4.01-1.9 8.22-3.16 12.63-3.37 1.08 0 1.37.21 1.37 1.26Zm-67.73-.21c-.1-1.37.2-2.11 1.66-2.32 5.68-.95 10.57-3.69 14.78-7.91 4.89-4.85 7.83-10.86 9.01-17.93.1-.95.29-1.48 1.37-1.48 4.41.1 8.81 0 13.21 0 .98 0 1.17.32 1.08 1.37-.78 7.06-2.74 13.71-6.17 19.72-7.73 13.5-19.09 21.09-33.57 23.2-.98.11-1.27-.11-1.27-1.16v-7.17c-.1-2 0-4.22-.1-6.33Zm67.73-80.25c-.1 4.74 0 9.49 0 14.23 0 1.06-.29 1.27-1.27 1.37-3.23.32-6.17 1.58-9.01 3.16-8.42 4.96-13.51 12.55-15.27 22.67-.2 1.16-.59 1.48-1.66 1.48-2.06-.1-4.21 0-6.26 0h-6.46c-.78 0-1.47 0-1.27-1.26.88-7.07 2.74-13.71 6.17-19.82 5.09-8.96 12.14-15.61 21.04-19.72 4.01-1.9 8.22-3.16 12.63-3.37 1.08.11 1.37.21 1.37 1.27Zm-67.73-.1c-.1-1.37.2-2.11 1.66-2.32 5.68-.95 10.57-3.69 14.78-7.91 4.89-4.85 7.83-10.86 9.01-17.93.1-.95.29-1.48 1.37-1.48 4.41.11 8.81 0 13.21 0 .98 0 1.17.32 1.08 1.37-.78 7.07-2.74 13.71-6.17 19.72-7.73 13.5-19.09 21.09-33.57 23.2-.98.11-1.27-.1-1.27-1.16v-7.17c-.1-2.11 0-4.22-.1-6.33Zm67.73-80.25c-.1 4.74 0 9.49 0 14.23 0 1.06-.29 1.27-1.27 1.37-3.23.32-6.17 1.58-9.01 3.16-8.42 4.96-13.51 12.55-15.27 22.67-.2 1.16-.59 1.48-1.66 1.48-2.06-.11-4.21 0-6.26 0h-6.46c-.78 0-1.47 0-1.27-1.27.88-7.06 2.74-13.71 6.17-19.82 5.09-8.96 12.14-15.61 21.04-19.72 4.01-1.9 8.22-3.16 12.63-3.37 1.08 0 1.37.21 1.37 1.27Zm-67.73-.21c-.1-1.37.2-2.11 1.66-2.32 5.68-.95 10.57-3.69 14.78-7.91 4.89-4.85 7.83-10.86 9.01-17.93.1-.95.29-1.48 1.37-1.48 4.41.11 8.81.11 13.21 0 .98 0 1.17.32 1.08 1.37-.78 7.06-2.74 13.71-6.17 19.72-7.73 13.5-19.09 21.09-33.57 23.2-.98.11-1.27-.1-1.27-1.16v-7.17c-.1-2 0-4.22-.1-6.33Zm67.73-80.24c-.1 4.74 0 9.49 0 14.23 0 1.05-.29 1.27-1.27 1.37-3.23.32-6.17 1.58-9.01 3.16-8.42 4.96-13.51 12.55-15.27 22.67-.2 1.16-.59 1.48-1.66 1.48-2.06-.11-4.21 0-6.26 0h-6.46c-.78 0-1.47 0-1.27-1.27.88-7.06 2.74-13.71 6.17-19.82 5.09-8.96 12.14-15.61 21.04-19.72 4.01-1.9 8.22-3.16 12.63-3.37 1.08.11 1.37.21 1.37 1.27Zm-67.73-.11c-.1-1.37.2-2.11 1.66-2.32 5.68-.95 10.57-3.69 14.78-7.91 4.89-4.85 7.83-10.86 9.01-17.93.1-.95.29-1.48 1.37-1.48 4.41.11 8.81 0 13.21 0 .98 0 1.17.32 1.08 1.37-.78 7.07-2.74 13.71-6.17 19.72-7.73 13.5-19.09 21.09-33.57 23.2-.98.11-1.27-.1-1.27-1.16v-7.17c-.1-2.11 0-4.22-.1-6.33Zm67.73-80.24c-.1 4.74 0 9.49 0 14.23 0 1.05-.29 1.26-1.27 1.37-3.23.32-6.17 1.58-9.01 3.16-8.42 4.96-13.51 12.55-15.27 22.67-.2 1.16-.59 1.48-1.66 1.48-2.06-.11-4.21 0-6.26 0h-6.46c-.78 0-1.47 0-1.27-1.27.88-7.06 2.74-13.71 6.17-19.82 5.09-8.96 12.14-15.61 21.04-19.72 4.01-1.9 8.22-3.16 12.63-3.37 1.08 0 1.37.21 1.37 1.27Zm-67.73-.21c-.1-1.37.2-2.11 1.66-2.32 5.68-.95 10.57-3.69 14.78-7.91 4.89-4.85 7.83-10.86 9.01-17.93.1-.95.29-1.48 1.37-1.48 4.41.11 8.81 0 13.21 0 .98 0 1.17.32 1.08 1.37-.78 7.07-2.74 13.71-6.17 19.72-7.73 13.5-19.09 21.09-33.57 23.2-.98.11-1.27-.1-1.27-1.16v-7.17c-.1-2 0-4.22-.1-6.33Zm67.73-80.25c-.1 4.75 0 9.49 0 14.23 0 1.06-.29 1.27-1.27 1.37-3.23.32-6.17 1.58-9.01 3.16-8.42 4.96-13.51 12.55-15.27 22.67-.2 1.16-.59 1.48-1.66 1.48-2.06-.11-4.21 0-6.26 0h-6.46c-.78 0-1.47 0-1.27-1.27.88-7.06 2.74-13.71 6.17-19.82 5.09-8.96 12.14-15.61 21.04-19.72 4.01-1.9 8.22-3.16 12.63-3.37 1.08.11 1.37.21 1.37 1.27Zm-67.73-.1c-.1-1.37.2-2.11 1.66-2.32 5.68-.95 10.57-3.69 14.78-7.91 4.89-4.85 7.83-10.86 9.01-17.93.1-.95.29-1.48 1.37-1.48 4.41.11 8.81 0 13.21 0 .98 0 1.17.32 1.08 1.37-.78 7.06-2.74 13.71-6.17 19.72-7.73 13.5-19.09 21.09-33.57 23.2-.98.1-1.27-.11-1.27-1.16v-7.17c-.1-2.11 0-4.22-.1-6.33Zm-7.05 562.98c-.1 4.74 0 9.49 0 14.23 0 1.06-.29 1.27-1.27 1.37-3.23.32-6.17 1.58-9 3.16-8.42 4.96-13.51 12.55-15.27 22.67-.2 1.16-.59 1.48-1.66 1.48-2.06-.11-4.21 0-6.26 0h-6.46c-.78 0-1.47 0-1.27-1.26.88-7.07 2.74-13.71 6.17-19.82 5.09-8.96 12.14-15.61 21.04-19.72 4.01-1.9 8.22-3.16 12.63-3.37.98 0 1.37.21 1.37 1.26Zm-67.73-.21c-.1-1.37.2-2.11 1.66-2.32 5.68-.95 10.57-3.69 14.78-7.91 4.89-4.85 7.83-10.86 9.01-17.93.1-.95.29-1.48 1.37-1.48 4.4.11 8.81 0 13.21 0 .98 0 1.18.32 1.08 1.37-.78 7.07-2.74 13.71-6.17 19.72-7.73 13.5-19.09 21.09-33.57 23.2-.98.11-1.27-.1-1.27-1.16v-7.17c-.1-2 0-4.22-.1-6.33Zm67.73-80.25c-.1 4.75 0 9.49 0 14.24 0 1.05-.29 1.26-1.27 1.37-3.23.32-6.17 1.58-9 3.16-8.42 4.96-13.51 12.55-15.27 22.67-.2 1.16-.59 1.48-1.66 1.48-2.06-.1-4.21 0-6.26 0h-6.46c-.78 0-1.47 0-1.27-1.26.88-7.07 2.74-13.71 6.17-19.82 5.09-8.96 12.14-15.61 21.04-19.72 4.01-1.9 8.22-3.16 12.63-3.37.98.1 1.37.21 1.37 1.26Zm-67.73-.1c-.1-1.37.2-2.11 1.66-2.32 5.68-.95 10.57-3.69 14.78-7.91 4.89-4.85 7.83-10.86 9.01-17.93.1-.95.29-1.48 1.37-1.48 4.4.1 8.81 0 13.21 0 .98 0 1.18.32 1.08 1.37-.78 7.06-2.74 13.71-6.17 19.72-7.73 13.5-19.09 21.09-33.57 23.2-.98.1-1.27-.11-1.27-1.16v-7.17c-.1-2.11 0-4.22-.1-6.33Zm67.73-80.25c-.1 4.75 0 9.49 0 14.24 0 1.05-.29 1.26-1.27 1.37-3.23.32-6.17 1.58-9 3.16-8.42 4.96-13.51 12.55-15.27 22.67-.2 1.16-.59 1.48-1.66 1.48-2.06-.1-4.21 0-6.26 0h-6.46c-.78 0-1.47 0-1.27-1.26.88-7.07 2.74-13.71 6.17-19.82 5.09-8.96 12.14-15.61 21.04-19.72 4.01-1.9 8.22-3.16 12.63-3.37.98 0 1.37.21 1.37 1.26Zm-67.73-.21c-.1-1.37.2-2.11 1.66-2.32 5.68-.95 10.57-3.69 14.78-7.91 4.89-4.85 7.83-10.86 9.01-17.93.1-.95.29-1.48 1.37-1.48 4.4.1 8.81 0 13.21 0 .98 0 1.18.32 1.08 1.37-.78 7.06-2.74 13.71-6.17 19.72-7.73 13.5-19.09 21.09-33.57 23.2-.98.11-1.27-.11-1.27-1.16v-7.17c-.1-2 0-4.22-.1-6.33Zm67.73-80.25c-.1 4.74 0 9.49 0 14.23 0 1.06-.29 1.27-1.27 1.37-3.23.32-6.17 1.58-9 3.16-8.42 4.96-13.51 12.55-15.27 22.67-.2 1.16-.59 1.48-1.66 1.48-2.06-.1-4.21 0-6.26 0h-6.46c-.78 0-1.47 0-1.27-1.26.88-7.07 2.74-13.71 6.17-19.82 5.09-8.96 12.14-15.61 21.04-19.72 4.01-1.9 8.22-3.16 12.63-3.37.98.11 1.37.21 1.37 1.27Zm-67.73-.1c-.1-1.37.2-2.11 1.66-2.32 5.68-.95 10.57-3.69 14.78-7.91 4.89-4.85 7.83-10.86 9.01-17.93.1-.95.29-1.48 1.37-1.48 4.4.11 8.81 0 13.21 0 .98 0 1.18.32 1.08 1.37-.78 7.07-2.74 13.71-6.17 19.72-7.73 13.5-19.09 21.09-33.57 23.2-.98.11-1.27-.1-1.27-1.16v-7.17c-.1-2.11 0-4.22-.1-6.33Zm67.73-80.25c-.1 4.74 0 9.49 0 14.23 0 1.06-.29 1.27-1.27 1.37-3.23.32-6.17 1.58-9 3.16-8.42 4.96-13.51 12.55-15.27 22.67-.2 1.16-.59 1.48-1.66 1.48-2.06-.11-4.21 0-6.26 0h-6.46c-.78 0-1.47 0-1.27-1.27.88-7.06 2.74-13.71 6.17-19.82 5.09-8.96 12.14-15.61 21.04-19.72 4.01-1.9 8.22-3.16 12.63-3.37.98 0 1.37.21 1.37 1.27Zm-67.73-.21c-.1-1.37.2-2.11 1.66-2.32 5.68-.95 10.57-3.69 14.78-7.91 4.89-4.85 7.83-10.86 9.01-17.93.1-.95.29-1.48 1.37-1.48 4.4.11 8.81.11 13.21 0 .98 0 1.18.32 1.08 1.37-.78 7.06-2.74 13.71-6.17 19.72-7.73 13.5-19.09 21.09-33.57 23.2-.98.11-1.27-.1-1.27-1.16v-7.17c-.1-2 0-4.22-.1-6.33Zm67.73-80.24c-.1 4.74 0 9.49 0 14.23 0 1.05-.29 1.27-1.27 1.37-3.23.32-6.17 1.58-9 3.16-8.42 4.96-13.51 12.55-15.27 22.67-.2 1.16-.59 1.48-1.66 1.48-2.06-.11-4.21 0-6.26 0h-6.46c-.78 0-1.47 0-1.27-1.27.88-7.06 2.74-13.71 6.17-19.82 5.09-8.96 12.14-15.61 21.04-19.72 4.01-1.9 8.22-3.16 12.63-3.37.98.11 1.37.21 1.37 1.27Zm-67.73-.11c-.1-1.37.2-2.11 1.66-2.32 5.68-.95 10.57-3.69 14.78-7.91 4.89-4.85 7.83-10.86 9.01-17.93.1-.95.29-1.48 1.37-1.48 4.4.11 8.81 0 13.21 0 .98 0 1.18.32 1.08 1.37-.78 7.07-2.74 13.71-6.17 19.72-7.73 13.5-19.09 21.09-33.57 23.2-.98.11-1.27-.1-1.27-1.16v-7.17c-.1-2.11 0-4.22-.1-6.33Zm67.73-80.24c-.1 4.74 0 9.49 0 14.23 0 1.05-.29 1.26-1.27 1.37-3.23.32-6.17 1.58-9 3.16-8.42 4.96-13.51 12.55-15.27 22.67-.2 1.16-.59 1.48-1.66 1.48-2.06-.11-4.21 0-6.26 0h-6.46c-.78 0-1.47 0-1.27-1.27.88-7.06 2.74-13.71 6.17-19.82 5.09-8.96 12.14-15.61 21.04-19.72 4.01-1.9 8.22-3.16 12.63-3.37.98 0 1.37.21 1.37 1.27Zm-67.73-.21c-.1-1.37.2-2.11 1.66-2.32 5.68-.95 10.57-3.69 14.78-7.91 4.89-4.85 7.83-10.86 9.01-17.93.1-.95.29-1.48 1.37-1.48 4.4.11 8.81 0 13.21 0 .98 0 1.18.32 1.08 1.37-.78 7.07-2.74 13.71-6.17 19.72-7.73 13.5-19.09 21.09-33.57 23.2-.98.11-1.27-.1-1.27-1.16v-7.17c-.1-2 0-4.22-.1-6.33Zm67.73-80.25c-.1 4.75 0 9.49 0 14.23 0 1.06-.29 1.27-1.27 1.37-3.23.32-6.17 1.58-9 3.16-8.42 4.96-13.51 12.55-15.27 22.67-.2 1.16-.59 1.48-1.66 1.48-2.06-.11-4.21 0-6.26 0h-6.46c-.78 0-1.47 0-1.27-1.27.88-7.06 2.74-13.71 6.17-19.82 5.09-8.96 12.14-15.61 21.04-19.72 4.01-1.9 8.22-3.16 12.63-3.37.98.11 1.37.21 1.37 1.27Zm-67.73-.1c-.1-1.37.2-2.11 1.66-2.32 5.68-.95 10.57-3.69 14.78-7.91 4.89-4.85 7.83-10.86 9.01-17.93.1-.95.29-1.48 1.37-1.48 4.4.11 8.81 0 13.21 0 .98 0 1.18.32 1.08 1.37-.78 7.06-2.74 13.71-6.17 19.72-7.73 13.5-19.09 21.09-33.57 23.2-.98.1-1.27-.11-1.27-1.16v-7.17c-.1-2.11 0-4.22-.1-6.33Zm-7.05 562.98c-.1 4.74 0 9.49 0 14.23 0 1.06-.29 1.27-1.27 1.37-3.23.32-6.17 1.58-9.01 3.16-8.42 4.96-13.51 12.55-15.27 22.67-.2 1.16-.59 1.48-1.66 1.48-2.06-.11-4.21 0-6.26 0h-6.46c-.78 0-1.47 0-1.27-1.26.88-7.07 2.74-13.71 6.17-19.82 5.09-8.96 12.14-15.61 21.04-19.72 4.01-1.9 8.22-3.16 12.63-3.37.98 0 1.37.21 1.37 1.26Zm-67.73-.21c-.1-1.37.2-2.11 1.66-2.32 5.68-.95 10.57-3.69 14.78-7.91 4.89-4.85 7.83-10.86 9-17.93.1-.95.29-1.48 1.37-1.48 4.41.11 8.81 0 13.21 0 .98 0 1.17.32 1.08 1.37-.78 7.07-2.74 13.71-6.17 19.72-7.73 13.5-19.09 21.09-33.57 23.2-.98.11-1.27-.1-1.27-1.16v-7.17c-.1-2 0-4.22-.1-6.33Zm67.73-80.25c-.1 4.75 0 9.49 0 14.24 0 1.05-.29 1.26-1.27 1.37-3.23.32-6.17 1.58-9.01 3.16-8.42 4.96-13.51 12.55-15.27 22.67-.2 1.16-.59 1.48-1.66 1.48-2.06-.1-4.21 0-6.26 0h-6.46c-.78 0-1.47 0-1.27-1.26.88-7.07 2.74-13.71 6.17-19.82 5.09-8.96 12.14-15.61 21.04-19.72 4.01-1.9 8.22-3.16 12.63-3.37.98.1 1.37.21 1.37 1.26Zm-67.73-.1c-.1-1.37.2-2.11 1.66-2.32 5.68-.95 10.57-3.69 14.78-7.91 4.89-4.85 7.83-10.86 9-17.93.1-.95.29-1.48 1.37-1.48 4.41.1 8.81 0 13.21 0 .98 0 1.17.32 1.08 1.37-.78 7.06-2.74 13.71-6.17 19.72-7.73 13.5-19.09 21.09-33.57 23.2-.98.1-1.27-.11-1.27-1.16v-7.17c-.1-2.11 0-4.22-.1-6.33Zm67.73-80.25c-.1 4.75 0 9.49 0 14.24 0 1.05-.29 1.26-1.27 1.37-3.23.32-6.17 1.58-9.01 3.16-8.42 4.96-13.51 12.55-15.27 22.67-.2 1.16-.59 1.48-1.66 1.48-2.06-.1-4.21 0-6.26 0h-6.46c-.78 0-1.47 0-1.27-1.26.88-7.07 2.74-13.71 6.17-19.82 5.09-8.96 12.14-15.61 21.04-19.72 4.01-1.9 8.22-3.16 12.63-3.37.98 0 1.37.21 1.37 1.26Zm-67.73-.21c-.1-1.37.2-2.11 1.66-2.32 5.68-.95 10.57-3.69 14.78-7.91 4.89-4.85 7.83-10.86 9-17.93.1-.95.29-1.48 1.37-1.48 4.41.1 8.81 0 13.21 0 .98 0 1.17.32 1.08 1.37-.78 7.06-2.74 13.71-6.17 19.72-7.73 13.5-19.09 21.09-33.57 23.2-.98.11-1.27-.11-1.27-1.16v-7.17c-.1-2 0-4.22-.1-6.33Zm67.73-80.25c-.1 4.74 0 9.49 0 14.23 0 1.06-.29 1.27-1.27 1.37-3.23.32-6.17 1.58-9.01 3.16-8.42 4.96-13.51 12.55-15.27 22.67-.2 1.16-.59 1.48-1.66 1.48-2.06-.1-4.21 0-6.26 0h-6.46c-.78 0-1.47 0-1.27-1.26.88-7.07 2.74-13.71 6.17-19.82 5.09-8.96 12.14-15.61 21.04-19.72 4.01-1.9 8.22-3.16 12.63-3.37.98.11 1.37.21 1.37 1.27Zm-67.73-.1c-.1-1.37.2-2.11 1.66-2.32 5.68-.95 10.57-3.69 14.78-7.91 4.89-4.85 7.83-10.86 9-17.93.1-.95.29-1.48 1.37-1.48 4.41.11 8.81 0 13.21 0 .98 0 1.17.32 1.08 1.37-.78 7.07-2.74 13.71-6.17 19.72-7.73 13.5-19.09 21.09-33.57 23.2-.98.11-1.27-.1-1.27-1.16v-7.17c-.1-2.11 0-4.22-.1-6.33Zm67.73-80.25c-.1 4.74 0 9.49 0 14.23 0 1.06-.29 1.27-1.27 1.37-3.23.32-6.17 1.58-9.01 3.16-8.42 4.96-13.51 12.55-15.27 22.67-.2 1.16-.59 1.48-1.66 1.48-2.06-.11-4.21 0-6.26 0h-6.46c-.78 0-1.47 0-1.27-1.27.88-7.06 2.74-13.71 6.17-19.82 5.09-8.96 12.14-15.61 21.04-19.72 4.01-1.9 8.22-3.16 12.63-3.37.98 0 1.37.21 1.37 1.27Zm-67.73-.21c-.1-1.37.2-2.11 1.66-2.32 5.68-.95 10.57-3.69 14.78-7.91 4.89-4.85 7.83-10.86 9-17.93.1-.95.29-1.48 1.37-1.48 4.41.11 8.81.11 13.21 0 .98 0 1.17.32 1.08 1.37-.78 7.06-2.74 13.71-6.17 19.72-7.73 13.5-19.09 21.09-33.57 23.2-.98.11-1.27-.1-1.27-1.16v-7.17c-.1-2 0-4.22-.1-6.33Zm67.73-80.24c-.1 4.74 0 9.49 0 14.23 0 1.05-.29 1.27-1.27 1.37-3.23.32-6.17 1.58-9.01 3.16-8.42 4.96-13.51 12.55-15.27 22.67-.2 1.16-.59 1.48-1.66 1.48-2.06-.11-4.21 0-6.26 0h-6.46c-.78 0-1.47 0-1.27-1.27.88-7.06 2.74-13.71 6.17-19.82 5.09-8.96 12.14-15.61 21.04-19.72 4.01-1.9 8.22-3.16 12.63-3.37.98.11 1.37.21 1.37 1.27Zm-67.73-.11c-.1-1.37.2-2.11 1.66-2.32 5.68-.95 10.57-3.69 14.78-7.91 4.89-4.85 7.83-10.86 9-17.93.1-.95.29-1.48 1.37-1.48 4.41.11 8.81 0 13.21 0 .98 0 1.17.32 1.08 1.37-.78 7.07-2.74 13.71-6.17 19.72-7.73 13.5-19.09 21.09-33.57 23.2-.98.11-1.27-.1-1.27-1.16v-7.17c-.1-2.11 0-4.22-.1-6.33Zm67.73-80.24c-.1 4.74 0 9.49 0 14.23 0 1.05-.29 1.26-1.27 1.37-3.23.32-6.17 1.58-9.01 3.16-8.42 4.96-13.51 12.55-15.27 22.67-.2 1.16-.59 1.48-1.66 1.48-2.06-.11-4.21 0-6.26 0h-6.46c-.78 0-1.47 0-1.27-1.27.88-7.06 2.74-13.71 6.17-19.82 5.09-8.96 12.14-15.61 21.04-19.72 4.01-1.9 8.22-3.16 12.63-3.37.98 0 1.37.21 1.37 1.27Zm-67.73-.21c-.1-1.37.2-2.11 1.66-2.32 5.68-.95 10.57-3.69 14.78-7.91 4.89-4.85 7.83-10.86 9-17.93.1-.95.29-1.48 1.37-1.48 4.41.11 8.81 0 13.21 0 .98 0 1.17.32 1.08 1.37-.78 7.07-2.74 13.71-6.17 19.72-7.73 13.5-19.09 21.09-33.57 23.2-.98.11-1.27-.1-1.27-1.16v-7.17c-.1-2 0-4.22-.1-6.33Zm67.73-80.25c-.1 4.75 0 9.49 0 14.23 0 1.06-.29 1.27-1.27 1.37-3.23.32-6.17 1.58-9.01 3.16-8.42 4.96-13.51 12.55-15.27 22.67-.2 1.16-.59 1.48-1.66 1.48-2.06-.11-4.21 0-6.26 0h-6.46c-.78 0-1.47 0-1.27-1.27.88-7.06 2.74-13.71 6.17-19.82 5.09-8.96 12.14-15.61 21.04-19.72 4.01-1.9 8.22-3.16 12.63-3.37.98.11 1.37.21 1.37 1.27Zm-67.73-.1c-.1-1.37.2-2.11 1.66-2.32 5.68-.95 10.57-3.69 14.78-7.91 4.89-4.85 7.83-10.86 9-17.93.1-.95.29-1.48 1.37-1.48 4.41.11 8.81 0 13.21 0 .98 0 1.17.32 1.08 1.37-.78 7.06-2.74 13.71-6.17 19.72-7.73 13.5-19.09 21.09-33.57 23.2-.98.1-1.27-.11-1.27-1.16v-7.17c-.1-2.11 0-4.22-.1-6.33Zm-7.05 562.98c-.1 4.74 0 9.49 0 14.23 0 1.06-.29 1.27-1.27 1.37-3.23.32-6.17 1.58-9.01 3.16-8.42 4.96-13.51 12.55-15.27 22.67-.2 1.16-.59 1.48-1.66 1.48-2.06-.11-4.21 0-6.26 0h-6.46c-.78 0-1.47 0-1.27-1.26.88-7.07 2.74-13.71 6.17-19.82 5.09-8.96 12.14-15.61 21.04-19.72 4.01-1.9 8.22-3.16 12.63-3.37.98 0 1.37.21 1.37 1.26Zm-67.83-.21c-.1-1.37.2-2.11 1.66-2.32 5.68-.95 10.57-3.69 14.78-7.91 4.89-4.85 7.83-10.86 9.01-17.93.1-.95.29-1.48 1.37-1.48 4.41.11 8.81 0 13.21 0 .98 0 1.17.32 1.08 1.37-.78 7.07-2.74 13.71-6.17 19.72-7.73 13.5-19.09 21.09-33.57 23.2-.98.11-1.27-.1-1.27-1.16v-7.17c0-2 0-4.22-.1-6.33Zm67.83-80.25c-.1 4.75 0 9.49 0 14.24 0 1.05-.29 1.26-1.27 1.37-3.23.32-6.17 1.58-9.01 3.16-8.42 4.96-13.51 12.55-15.27 22.67-.2 1.16-.59 1.48-1.66 1.48-2.06-.1-4.21 0-6.26 0h-6.46c-.78 0-1.47 0-1.27-1.26.88-7.07 2.74-13.71 6.17-19.82 5.09-8.96 12.14-15.61 21.04-19.72 4.01-1.9 8.22-3.16 12.63-3.37.98.1 1.37.21 1.37 1.26Zm-67.83-.1c-.1-1.37.2-2.11 1.66-2.32 5.68-.95 10.57-3.69 14.78-7.91 4.89-4.85 7.83-10.86 9.01-17.93.1-.95.29-1.48 1.37-1.48 4.41.1 8.81 0 13.21 0 .98 0 1.17.32 1.08 1.37-.78 7.06-2.74 13.71-6.17 19.72-7.73 13.5-19.09 21.09-33.57 23.2-.98.1-1.27-.11-1.27-1.16v-7.17c0-2.11 0-4.22-.1-6.33Zm67.83-80.25c-.1 4.75 0 9.49 0 14.24 0 1.05-.29 1.26-1.27 1.37-3.23.32-6.17 1.58-9.01 3.16-8.42 4.96-13.51 12.55-15.27 22.67-.2 1.16-.59 1.48-1.66 1.48-2.06-.1-4.21 0-6.26 0h-6.46c-.78 0-1.47 0-1.27-1.26.88-7.07 2.74-13.71 6.17-19.82 5.09-8.96 12.14-15.61 21.04-19.72 4.01-1.9 8.22-3.16 12.63-3.37.98 0 1.37.21 1.37 1.26Zm-67.83-.21c-.1-1.37.2-2.11 1.66-2.32 5.68-.95 10.57-3.69 14.78-7.91 4.89-4.85 7.83-10.86 9.01-17.93.1-.95.29-1.48 1.37-1.48 4.41.1 8.81 0 13.21 0 .98 0 1.17.32 1.08 1.37-.78 7.06-2.74 13.71-6.17 19.72-7.73 13.5-19.09 21.09-33.57 23.2-.98.11-1.27-.11-1.27-1.16v-7.17c0-2 0-4.22-.1-6.33Zm67.83-80.25c-.1 4.74 0 9.49 0 14.23 0 1.06-.29 1.27-1.27 1.37-3.23.32-6.17 1.58-9.01 3.16-8.42 4.96-13.51 12.55-15.27 22.67-.2 1.16-.59 1.48-1.66 1.48-2.06-.1-4.21 0-6.26 0h-6.46c-.78 0-1.47 0-1.27-1.26.88-7.07 2.74-13.71 6.17-19.82 5.09-8.96 12.14-15.61 21.04-19.72 4.01-1.9 8.22-3.16 12.63-3.37.98.11 1.37.21 1.37 1.27Zm-67.83-.1c-.1-1.37.2-2.11 1.66-2.32 5.68-.95 10.57-3.69 14.78-7.91 4.89-4.85 7.83-10.86 9.01-17.93.1-.95.29-1.48 1.37-1.48 4.41.11 8.81 0 13.21 0 .98 0 1.17.32 1.08 1.37-.78 7.07-2.74 13.71-6.17 19.72-7.73 13.5-19.09 21.09-33.57 23.2-.98.11-1.27-.1-1.27-1.16v-7.17c0-2.11 0-4.22-.1-6.33Zm67.83-80.25c-.1 4.74 0 9.49 0 14.23 0 1.06-.29 1.27-1.27 1.37-3.23.32-6.17 1.58-9.01 3.16-8.42 4.96-13.51 12.55-15.27 22.67-.2 1.16-.59 1.48-1.66 1.48-2.06-.11-4.21 0-6.26 0h-6.46c-.78 0-1.47 0-1.27-1.27.88-7.06 2.74-13.71 6.17-19.82 5.09-8.96 12.14-15.61 21.04-19.72 4.01-1.9 8.22-3.16 12.63-3.37.98 0 1.37.21 1.37 1.27Zm-67.83-.21c-.1-1.37.2-2.11 1.66-2.32 5.68-.95 10.57-3.69 14.78-7.91 4.89-4.85 7.83-10.86 9.01-17.93.1-.95.29-1.48 1.37-1.48 4.41.11 8.81.11 13.21 0 .98 0 1.17.32 1.08 1.37-.78 7.06-2.74 13.71-6.17 19.72-7.73 13.5-19.09 21.09-33.57 23.2-.98.11-1.27-.1-1.27-1.16v-7.17c0-2 0-4.22-.1-6.33Zm67.83-80.24c-.1 4.74 0 9.49 0 14.23 0 1.05-.29 1.27-1.27 1.37-3.23.32-6.17 1.58-9.01 3.16-8.42 4.96-13.51 12.55-15.27 22.67-.2 1.16-.59 1.48-1.66 1.48-2.06-.11-4.21 0-6.26 0h-6.46c-.78 0-1.47 0-1.27-1.27.88-7.06 2.74-13.71 6.17-19.82 5.09-8.96 12.14-15.61 21.04-19.72 4.01-1.9 8.22-3.16 12.63-3.37.98.11 1.37.21 1.37 1.27Zm-67.83-.11c-.1-1.37.2-2.11 1.66-2.32 5.68-.95 10.57-3.69 14.78-7.91 4.89-4.85 7.83-10.86 9.01-17.93.1-.95.29-1.48 1.37-1.48 4.41.11 8.81 0 13.21 0 .98 0 1.17.32 1.08 1.37-.78 7.07-2.74 13.71-6.17 19.72-7.73 13.5-19.09 21.09-33.57 23.2-.98.11-1.27-.1-1.27-1.16v-7.17c0-2.11 0-4.22-.1-6.33Zm67.83-80.24c-.1 4.74 0 9.49 0 14.23 0 1.05-.29 1.26-1.27 1.37-3.23.32-6.17 1.58-9.01 3.16-8.42 4.96-13.51 12.55-15.27 22.67-.2 1.16-.59 1.48-1.66 1.48-2.06-.11-4.21 0-6.26 0h-6.46c-.78 0-1.47 0-1.27-1.27.88-7.06 2.74-13.71 6.17-19.82 5.09-8.96 12.14-15.61 21.04-19.72 4.01-1.9 8.22-3.16 12.63-3.37.98 0 1.37.21 1.37 1.27Zm-67.83-.21c-.1-1.37.2-2.11 1.66-2.32 5.68-.95 10.57-3.69 14.78-7.91 4.89-4.85 7.83-10.86 9.01-17.93.1-.95.29-1.48 1.37-1.48 4.41.11 8.81 0 13.21 0 .98 0 1.17.32 1.08 1.37-.78 7.07-2.74 13.71-6.17 19.72-7.73 13.5-19.09 21.09-33.57 23.2-.98.11-1.27-.1-1.27-1.16v-7.17c0-2 0-4.22-.1-6.33Zm67.83-80.25c-.1 4.75 0 9.49 0 14.23 0 1.06-.29 1.27-1.27 1.37-3.23.32-6.17 1.58-9.01 3.16-8.42 4.96-13.51 12.55-15.27 22.67-.2 1.16-.59 1.48-1.66 1.48-2.06-.11-4.21 0-6.26 0h-6.46c-.78 0-1.47 0-1.27-1.27.88-7.06 2.74-13.71 6.17-19.82 5.09-8.96 12.14-15.61 21.04-19.72 4.01-1.9 8.22-3.16 12.63-3.37.98.11 1.37.21 1.37 1.27Zm-67.83-.1c-.1-1.37.2-2.11 1.66-2.32 5.68-.95 10.57-3.69 14.78-7.91 4.89-4.85 7.83-10.86 9.01-17.93.1-.95.29-1.48 1.37-1.48 4.41.11 8.81 0 13.21 0 .98 0 1.17.32 1.08 1.37-.78 7.06-2.74 13.71-6.17 19.72-7.73 13.5-19.09 21.09-33.57 23.2-.98.1-1.27-.11-1.27-1.16v-7.17c0-2.11 0-4.22-.1-6.33Zm-7.05 562.98c-.1 4.74 0 9.49 0 14.23 0 1.06-.29 1.27-1.27 1.37-3.23.32-6.17 1.58-9.01 3.16-8.42 4.96-13.51 12.55-15.27 22.67-.2 1.16-.59 1.48-1.66 1.48-2.06-.11-4.21 0-6.26 0h-6.46c-.78 0-1.47 0-1.27-1.26.88-7.07 2.74-13.71 6.17-19.82 5.09-8.96 12.14-15.61 21.04-19.72 4.01-1.9 8.22-3.16 12.63-3.37 1.08 0 1.47.21 1.37 1.26Zm-67.73-.21c-.1-1.37.2-2.11 1.66-2.32 5.68-.95 10.57-3.69 14.78-7.91 4.89-4.85 7.83-10.86 9.01-17.93.1-.95.29-1.48 1.37-1.48 4.41.11 8.81 0 13.21 0 .98 0 1.17.32 1.08 1.37-.78 7.07-2.74 13.71-6.17 19.72-7.73 13.5-19.09 21.09-33.57 23.2-.98.11-1.27-.1-1.27-1.16v-7.17c-.1-2 0-4.22-.1-6.33Zm67.73-80.25c-.1 4.75 0 9.49 0 14.24 0 1.05-.29 1.26-1.27 1.37-3.23.32-6.17 1.58-9.01 3.16-8.42 4.96-13.51 12.55-15.27 22.67-.2 1.16-.59 1.48-1.66 1.48-2.06-.1-4.21 0-6.26 0h-6.46c-.78 0-1.47 0-1.27-1.26.88-7.07 2.74-13.71 6.17-19.82 5.09-8.96 12.14-15.61 21.04-19.72 4.01-1.9 8.22-3.16 12.63-3.37 1.08.1 1.47.21 1.37 1.26Zm-67.73-.1c-.1-1.37.2-2.11 1.66-2.32 5.68-.95 10.57-3.69 14.78-7.91 4.89-4.85 7.83-10.86 9.01-17.93.1-.95.29-1.48 1.37-1.48 4.41.1 8.81 0 13.21 0 .98 0 1.17.32 1.08 1.37-.78 7.06-2.74 13.71-6.17 19.72-7.73 13.5-19.09 21.09-33.57 23.2-.98.1-1.27-.11-1.27-1.16v-7.17c-.1-2.11 0-4.22-.1-6.33Zm67.73-80.25c-.1 4.75 0 9.49 0 14.24 0 1.05-.29 1.26-1.27 1.37-3.23.32-6.17 1.58-9.01 3.16-8.42 4.96-13.51 12.55-15.27 22.67-.2 1.16-.59 1.48-1.66 1.48-2.06-.1-4.21 0-6.26 0h-6.46c-.78 0-1.47 0-1.27-1.26.88-7.07 2.74-13.71 6.17-19.82 5.09-8.96 12.14-15.61 21.04-19.72 4.01-1.9 8.22-3.16 12.63-3.37 1.08 0 1.47.21 1.37 1.26Zm-67.73-.21c-.1-1.37.2-2.11 1.66-2.32 5.68-.95 10.57-3.69 14.78-7.91 4.89-4.85 7.83-10.86 9.01-17.93.1-.95.29-1.48 1.37-1.48 4.41.1 8.81 0 13.21 0 .98 0 1.17.32 1.08 1.37-.78 7.06-2.74 13.71-6.17 19.72-7.73 13.5-19.09 21.09-33.57 23.2-.98.11-1.27-.11-1.27-1.16v-7.17c-.1-2 0-4.22-.1-6.33Zm67.73-80.25c-.1 4.74 0 9.49 0 14.23 0 1.06-.29 1.27-1.27 1.37-3.23.32-6.17 1.58-9.01 3.16-8.42 4.96-13.51 12.55-15.27 22.67-.2 1.16-.59 1.48-1.66 1.48-2.06-.1-4.21 0-6.26 0h-6.46c-.78 0-1.47 0-1.27-1.26.88-7.07 2.74-13.71 6.17-19.82 5.09-8.96 12.14-15.61 21.04-19.72 4.01-1.9 8.22-3.16 12.63-3.37 1.08.11 1.47.21 1.37 1.27Zm-67.73-.1c-.1-1.37.2-2.11 1.66-2.32 5.68-.95 10.57-3.69 14.78-7.91 4.89-4.85 7.83-10.86 9.01-17.93.1-.95.29-1.48 1.37-1.48 4.41.11 8.81 0 13.21 0 .98 0 1.17.32 1.08 1.37-.78 7.07-2.74 13.71-6.17 19.72-7.73 13.5-19.09 21.09-33.57 23.2-.98.11-1.27-.1-1.27-1.16v-7.17c-.1-2.11 0-4.22-.1-6.33Zm67.73-80.25c-.1 4.74 0 9.49 0 14.23 0 1.06-.29 1.27-1.27 1.37-3.23.32-6.17 1.58-9.01 3.16-8.42 4.96-13.51 12.55-15.27 22.67-.2 1.16-.59 1.48-1.66 1.48-2.06-.11-4.21 0-6.26 0h-6.46c-.78 0-1.47 0-1.27-1.27.88-7.06 2.74-13.71 6.17-19.82 5.09-8.96 12.14-15.61 21.04-19.72 4.01-1.9 8.22-3.16 12.63-3.37 1.08 0 1.47.21 1.37 1.27Zm-67.73-.21c-.1-1.37.2-2.11 1.66-2.32 5.68-.95 10.57-3.69 14.78-7.91 4.89-4.85 7.83-10.86 9.01-17.93.1-.95.29-1.48 1.37-1.48 4.41.11 8.81.11 13.21 0 .98 0 1.17.32 1.08 1.37-.78 7.06-2.74 13.71-6.17 19.72-7.73 13.5-19.09 21.09-33.57 23.2-.98.11-1.27-.1-1.27-1.16v-7.17c-.1-2 0-4.22-.1-6.33Zm67.73-80.24c-.1 4.74 0 9.49 0 14.23 0 1.05-.29 1.27-1.27 1.37-3.23.32-6.17 1.58-9.01 3.16-8.42 4.96-13.51 12.55-15.27 22.67-.2 1.16-.59 1.48-1.66 1.48-2.06-.11-4.21 0-6.26 0h-6.46c-.78 0-1.47 0-1.27-1.27.88-7.06 2.74-13.71 6.17-19.82 5.09-8.96 12.14-15.61 21.04-19.72 4.01-1.9 8.22-3.16 12.63-3.37 1.08.11 1.47.21 1.37 1.27Zm-67.73-.11c-.1-1.37.2-2.11 1.66-2.32 5.68-.95 10.57-3.69 14.78-7.91 4.89-4.85 7.83-10.86 9.01-17.93.1-.95.29-1.48 1.37-1.48 4.41.11 8.81 0 13.21 0 .98 0 1.17.32 1.08 1.37-.78 7.07-2.74 13.71-6.17 19.72-7.73 13.5-19.09 21.09-33.57 23.2-.98.11-1.27-.1-1.27-1.16v-7.17c-.1-2.11 0-4.22-.1-6.33Zm67.73-80.24c-.1 4.74 0 9.49 0 14.23 0 1.05-.29 1.26-1.27 1.37-3.23.32-6.17 1.58-9.01 3.16-8.42 4.96-13.51 12.55-15.27 22.67-.2 1.16-.59 1.48-1.66 1.48-2.06-.11-4.21 0-6.26 0h-6.46c-.78 0-1.47 0-1.27-1.27.88-7.06 2.74-13.71 6.17-19.82 5.09-8.96 12.14-15.61 21.04-19.72 4.01-1.9 8.22-3.16 12.63-3.37 1.08 0 1.47.21 1.37 1.27Zm-67.73-.21c-.1-1.37.2-2.11 1.66-2.32 5.68-.95 10.57-3.69 14.78-7.91 4.89-4.85 7.83-10.86 9.01-17.93.1-.95.29-1.48 1.37-1.48 4.41.11 8.81 0 13.21 0 .98 0 1.17.32 1.08 1.37-.78 7.07-2.74 13.71-6.17 19.72-7.73 13.5-19.09 21.09-33.57 23.2-.98.11-1.27-.1-1.27-1.16v-7.17c-.1-2 0-4.22-.1-6.33Zm67.73-80.25c-.1 4.75 0 9.49 0 14.23 0 1.06-.29 1.27-1.27 1.37-3.23.32-6.17 1.58-9.01 3.16-8.42 4.96-13.51 12.55-15.27 22.67-.2 1.16-.59 1.48-1.66 1.48-2.06-.11-4.21 0-6.26 0h-6.46c-.78 0-1.47 0-1.27-1.27.88-7.06 2.74-13.71 6.17-19.82 5.09-8.96 12.14-15.61 21.04-19.72 4.01-1.9 8.22-3.16 12.63-3.37 1.08.11 1.47.21 1.37 1.27Zm-67.73-.1c-.1-1.37.2-2.11 1.66-2.32 5.68-.95 10.57-3.69 14.78-7.91 4.89-4.85 7.83-10.86 9.01-17.93.1-.95.29-1.48 1.37-1.48 4.41.11 8.81 0 13.21 0 .98 0 1.17.32 1.08 1.37-.78 7.06-2.74 13.71-6.17 19.72-7.73 13.5-19.09 21.09-33.57 23.2-.98.1-1.27-.11-1.27-1.16v-7.17c-.1-2.11 0-4.22-.1-6.33Zm-7.04 562.98c-.1 4.74 0 9.49 0 14.23 0 1.06-.29 1.27-1.27 1.37-3.23.32-6.17 1.58-9.01 3.16-8.42 4.96-13.51 12.55-15.27 22.67-.2 1.16-.59 1.48-1.66 1.48-2.06-.11-4.21 0-6.26 0h-6.46c-.78 0-1.47 0-1.27-1.26.88-7.07 2.74-13.71 6.17-19.82 5.09-8.96 12.14-15.61 21.04-19.72 4.01-1.9 8.22-3.16 12.63-3.37 1.08 0 1.37.21 1.37 1.26Zm-67.74-.21c-.1-1.37.2-2.11 1.66-2.32 5.68-.95 10.57-3.69 14.78-7.91 4.89-4.85 7.83-10.86 9.01-17.93.1-.95.29-1.48 1.37-1.48 4.41.11 8.81 0 13.21 0 .98 0 1.17.32 1.08 1.37-.78 7.07-2.74 13.71-6.17 19.72-7.73 13.5-19.09 21.09-33.57 23.2-.98.11-1.27-.1-1.27-1.16v-7.17c-.1-2 0-4.22-.1-6.33Zm67.74-80.25c-.1 4.75 0 9.49 0 14.24 0 1.05-.29 1.26-1.27 1.37-3.23.32-6.17 1.58-9.01 3.16-8.42 4.96-13.51 12.55-15.27 22.67-.2 1.16-.59 1.48-1.66 1.48-2.06-.1-4.21 0-6.26 0h-6.46c-.78 0-1.47 0-1.27-1.26.88-7.07 2.74-13.71 6.17-19.82 5.09-8.96 12.14-15.61 21.04-19.72 4.01-1.9 8.22-3.16 12.63-3.37 1.08.1 1.37.21 1.37 1.26Zm-67.74-.1c-.1-1.37.2-2.11 1.66-2.32 5.68-.95 10.57-3.69 14.78-7.91 4.89-4.85 7.83-10.86 9.01-17.93.1-.95.29-1.48 1.37-1.48 4.41.1 8.81 0 13.21 0 .98 0 1.17.32 1.08 1.37-.78 7.06-2.74 13.71-6.17 19.72-7.73 13.5-19.09 21.09-33.57 23.2-.98.1-1.27-.11-1.27-1.16v-7.17c-.1-2.11 0-4.22-.1-6.33Zm67.74-80.25c-.1 4.75 0 9.49 0 14.24 0 1.05-.29 1.26-1.27 1.37-3.23.32-6.17 1.58-9.01 3.16-8.42 4.96-13.51 12.55-15.27 22.67-.2 1.16-.59 1.48-1.66 1.48-2.06-.1-4.21 0-6.26 0h-6.46c-.78 0-1.47 0-1.27-1.26.88-7.07 2.74-13.71 6.17-19.82 5.09-8.96 12.14-15.61 21.04-19.72 4.01-1.9 8.22-3.16 12.63-3.37 1.08 0 1.37.21 1.37 1.26Zm-67.74-.21c-.1-1.37.2-2.11 1.66-2.32 5.68-.95 10.57-3.69 14.78-7.91 4.89-4.85 7.83-10.86 9.01-17.93.1-.95.29-1.48 1.37-1.48 4.41.1 8.81 0 13.21 0 .98 0 1.17.32 1.08 1.37-.78 7.06-2.74 13.71-6.17 19.72-7.73 13.5-19.09 21.09-33.57 23.2-.98.11-1.27-.11-1.27-1.16v-7.17c-.1-2 0-4.22-.1-6.33Zm67.74-80.25c-.1 4.74 0 9.49 0 14.23 0 1.06-.29 1.27-1.27 1.37-3.23.32-6.17 1.58-9.01 3.16-8.42 4.96-13.51 12.55-15.27 22.67-.2 1.16-.59 1.48-1.66 1.48-2.06-.1-4.21 0-6.26 0h-6.46c-.78 0-1.47 0-1.27-1.26.88-7.07 2.74-13.71 6.17-19.82 5.09-8.96 12.14-15.61 21.04-19.72 4.01-1.9 8.22-3.16 12.63-3.37 1.08.11 1.37.21 1.37 1.27Zm-67.74-.1c-.1-1.37.2-2.11 1.66-2.32 5.68-.95 10.57-3.69 14.78-7.91 4.89-4.85 7.83-10.86 9.01-17.93.1-.95.29-1.48 1.37-1.48 4.41.11 8.81 0 13.21 0 .98 0 1.17.32 1.08 1.37-.78 7.07-2.74 13.71-6.17 19.72-7.73 13.5-19.09 21.09-33.57 23.2-.98.11-1.27-.1-1.27-1.16v-7.17c-.1-2.11 0-4.22-.1-6.33Zm67.74-80.25c-.1 4.74 0 9.49 0 14.23 0 1.06-.29 1.27-1.27 1.37-3.23.32-6.17 1.58-9.01 3.16-8.42 4.96-13.51 12.55-15.27 22.67-.2 1.16-.59 1.48-1.66 1.48-2.06-.11-4.21 0-6.26 0h-6.46c-.78 0-1.47 0-1.27-1.27.88-7.06 2.74-13.71 6.17-19.82 5.09-8.96 12.14-15.61 21.04-19.72 4.01-1.9 8.22-3.16 12.63-3.37 1.08 0 1.37.21 1.37 1.27Zm-67.74-.21c-.1-1.37.2-2.11 1.66-2.32 5.68-.95 10.57-3.69 14.78-7.91 4.89-4.85 7.83-10.86 9.01-17.93.1-.95.29-1.48 1.37-1.48 4.41.11 8.81.11 13.21 0 .98 0 1.17.32 1.08 1.37-.78 7.06-2.74 13.71-6.17 19.72-7.73 13.5-19.09 21.09-33.57 23.2-.98.11-1.27-.1-1.27-1.16v-7.17c-.1-2 0-4.22-.1-6.33Zm67.74-80.24c-.1 4.74 0 9.49 0 14.23 0 1.05-.29 1.27-1.27 1.37-3.23.32-6.17 1.58-9.01 3.16-8.42 4.96-13.51 12.55-15.27 22.67-.2 1.16-.59 1.48-1.66 1.48-2.06-.11-4.21 0-6.26 0h-6.46c-.78 0-1.47 0-1.27-1.27.88-7.06 2.74-13.71 6.17-19.82 5.09-8.96 12.14-15.61 21.04-19.72 4.01-1.9 8.22-3.16 12.63-3.37 1.08.11 1.37.21 1.37 1.27Zm-67.74-.11c-.1-1.37.2-2.11 1.66-2.32 5.68-.95 10.57-3.69 14.78-7.91 4.89-4.85 7.83-10.86 9.01-17.93.1-.95.29-1.48 1.37-1.48 4.41.11 8.81 0 13.21 0 .98 0 1.17.32 1.08 1.37-.78 7.07-2.74 13.71-6.17 19.72-7.73 13.5-19.09 21.09-33.57 23.2-.98.11-1.27-.1-1.27-1.16v-7.17c-.1-2.11 0-4.22-.1-6.33Zm67.74-80.24c-.1 4.74 0 9.49 0 14.23 0 1.05-.29 1.26-1.27 1.37-3.23.32-6.17 1.58-9.01 3.16-8.42 4.96-13.51 12.55-15.27 22.67-.2 1.16-.59 1.48-1.66 1.48-2.06-.11-4.21 0-6.26 0h-6.46c-.78 0-1.47 0-1.27-1.27.88-7.06 2.74-13.71 6.17-19.82 5.09-8.96 12.14-15.61 21.04-19.72 4.01-1.9 8.22-3.16 12.63-3.37 1.08 0 1.37.21 1.37 1.27Zm-67.74-.21c-.1-1.37.2-2.11 1.66-2.32 5.68-.95 10.57-3.69 14.78-7.91 4.89-4.85 7.83-10.86 9.01-17.93.1-.95.29-1.48 1.37-1.48 4.41.11 8.81 0 13.21 0 .98 0 1.17.32 1.08 1.37-.78 7.07-2.74 13.71-6.17 19.72-7.73 13.5-19.09 21.09-33.57 23.2-.98.11-1.27-.1-1.27-1.16v-7.17c-.1-2 0-4.22-.1-6.33Zm67.74-80.25c-.1 4.75 0 9.49 0 14.23 0 1.06-.29 1.27-1.27 1.37-3.23.32-6.17 1.58-9.01 3.16-8.42 4.96-13.51 12.55-15.27 22.67-.2 1.16-.59 1.48-1.66 1.48-2.06-.11-4.21 0-6.26 0h-6.46c-.78 0-1.47 0-1.27-1.27.88-7.06 2.74-13.71 6.17-19.82 5.09-8.96 12.14-15.61 21.04-19.72 4.01-1.9 8.22-3.16 12.63-3.37 1.08.11 1.37.21 1.37 1.27Zm-67.74-.1c-.1-1.37.2-2.11 1.66-2.32 5.68-.95 10.57-3.69 14.78-7.91 4.89-4.85 7.83-10.86 9.01-17.93.1-.95.29-1.48 1.37-1.48 4.41.11 8.81 0 13.21 0 .98 0 1.17.32 1.08 1.37-.78 7.06-2.74 13.71-6.17 19.72-7.73 13.5-19.09 21.09-33.57 23.2-.98.1-1.27-.11-1.27-1.16v-7.17c-.1-2.11 0-4.22-.1-6.33Zm-156.6 562.98c-.1 4.74 0 9.49 0 14.23 0 1.06-.29 1.27-1.27 1.37-3.23.32-6.17 1.58-9.01 3.16-8.42 4.96-13.51 12.55-15.27 22.67-.2 1.16-.59 1.48-1.66 1.48-2.06-.11-4.21 0-6.26 0h-6.46c-.78 0-1.47 0-1.27-1.26.88-7.07 2.74-13.71 6.17-19.82 5.09-8.96 12.14-15.61 21.04-19.72 4.01-1.9 8.22-3.16 12.63-3.37.98 0 1.37.21 1.37 1.26Zm-67.73-.21c-.1-1.37.2-2.11 1.66-2.32 5.68-.95 10.57-3.69 14.78-7.91 4.89-4.85 7.83-10.86 9.01-17.93.1-.95.29-1.48 1.37-1.48 4.41.11 8.81 0 13.21 0 .98 0 1.17.32 1.08 1.37-.78 7.07-2.74 13.71-6.17 19.72-7.73 13.5-19.09 21.09-33.57 23.2-.98.11-1.27-.1-1.27-1.16v-7.17c-.1-2 0-4.22-.1-6.33Zm67.73-80.25c-.1 4.75 0 9.49 0 14.24 0 1.05-.29 1.26-1.27 1.37-3.23.32-6.17 1.58-9.01 3.16-8.42 4.96-13.51 12.55-15.27 22.67-.2 1.16-.59 1.48-1.66 1.48-2.06-.1-4.21 0-6.26 0h-6.46c-.78 0-1.47 0-1.27-1.26.88-7.07 2.74-13.71 6.17-19.82 5.09-8.96 12.14-15.61 21.04-19.72 4.01-1.9 8.22-3.16 12.63-3.37.98.1 1.37.21 1.37 1.26Zm-67.73-.1c-.1-1.37.2-2.11 1.66-2.32 5.68-.95 10.57-3.69 14.78-7.91 4.89-4.85 7.83-10.86 9.01-17.93.1-.95.29-1.48 1.37-1.48 4.41.1 8.81 0 13.21 0 .98 0 1.17.32 1.08 1.37-.78 7.06-2.74 13.71-6.17 19.72-7.73 13.5-19.09 21.09-33.57 23.2-.98.1-1.27-.11-1.27-1.16v-7.17c-.1-2.11 0-4.22-.1-6.33Zm67.73-80.25c-.1 4.75 0 9.49 0 14.24 0 1.05-.29 1.26-1.27 1.37-3.23.32-6.17 1.58-9.01 3.16-8.42 4.96-13.51 12.55-15.27 22.67-.2 1.16-.59 1.48-1.66 1.48-2.06-.1-4.21 0-6.26 0h-6.46c-.78 0-1.47 0-1.27-1.26.88-7.07 2.74-13.71 6.17-19.82 5.09-8.96 12.14-15.61 21.04-19.72 4.01-1.9 8.22-3.16 12.63-3.37.98 0 1.37.21 1.37 1.26Zm-67.73-.21c-.1-1.37.2-2.11 1.66-2.32 5.68-.95 10.57-3.69 14.78-7.91 4.89-4.85 7.83-10.86 9.01-17.93.1-.95.29-1.48 1.37-1.48 4.41.1 8.81 0 13.21 0 .98 0 1.17.32 1.08 1.37-.78 7.06-2.74 13.71-6.17 19.72-7.73 13.5-19.09 21.09-33.57 23.2-.98.11-1.27-.11-1.27-1.16v-7.17c-.1-2 0-4.22-.1-6.33Zm67.73-80.25c-.1 4.74 0 9.49 0 14.23 0 1.06-.29 1.27-1.27 1.37-3.23.32-6.17 1.58-9.01 3.16-8.42 4.96-13.51 12.55-15.27 22.67-.2 1.16-.59 1.48-1.66 1.48-2.06-.1-4.21 0-6.26 0h-6.46c-.78 0-1.47 0-1.27-1.26.88-7.07 2.74-13.71 6.17-19.82 5.09-8.96 12.14-15.61 21.04-19.72 4.01-1.9 8.22-3.16 12.63-3.37.98.11 1.37.21 1.37 1.27Zm-67.73-.1c-.1-1.37.2-2.11 1.66-2.32 5.68-.95 10.57-3.69 14.78-7.91 4.89-4.85 7.83-10.86 9.01-17.93.1-.95.29-1.48 1.37-1.48 4.41.11 8.81 0 13.21 0 .98 0 1.17.32 1.08 1.37-.78 7.07-2.74 13.71-6.17 19.72-7.73 13.5-19.09 21.09-33.57 23.2-.98.11-1.27-.1-1.27-1.16v-7.17c-.1-2.11 0-4.22-.1-6.33Zm67.73-80.25c-.1 4.74 0 9.49 0 14.23 0 1.06-.29 1.27-1.27 1.37-3.23.32-6.17 1.58-9.01 3.16-8.42 4.96-13.51 12.55-15.27 22.67-.2 1.16-.59 1.48-1.66 1.48-2.06-.11-4.21 0-6.26 0h-6.46c-.78 0-1.47 0-1.27-1.27.88-7.06 2.74-13.71 6.17-19.82 5.09-8.96 12.14-15.61 21.04-19.72 4.01-1.9 8.22-3.16 12.63-3.37.98 0 1.37.21 1.37 1.27Zm-67.73-.21c-.1-1.37.2-2.11 1.66-2.32 5.68-.95 10.57-3.69 14.78-7.91 4.89-4.85 7.83-10.86 9.01-17.93.1-.95.29-1.48 1.37-1.48 4.41.11 8.81.11 13.21 0 .98 0 1.17.32 1.08 1.37-.78 7.06-2.74 13.71-6.17 19.72-7.73 13.5-19.09 21.09-33.57 23.2-.98.11-1.27-.1-1.27-1.16v-7.17c-.1-2 0-4.22-.1-6.33Zm67.73-80.24c-.1 4.74 0 9.49 0 14.23 0 1.05-.29 1.27-1.27 1.37-3.23.32-6.17 1.58-9.01 3.16-8.42 4.96-13.51 12.55-15.27 22.67-.2 1.16-.59 1.48-1.66 1.48-2.06-.11-4.21 0-6.26 0h-6.46c-.78 0-1.47 0-1.27-1.27.88-7.06 2.74-13.71 6.17-19.82 5.09-8.96 12.14-15.61 21.04-19.72 4.01-1.9 8.22-3.16 12.63-3.37.98.11 1.37.21 1.37 1.27Zm-67.73-.11c-.1-1.37.2-2.11 1.66-2.32 5.68-.95 10.57-3.69 14.78-7.91 4.89-4.85 7.83-10.86 9.01-17.93.1-.95.29-1.48 1.37-1.48 4.41.11 8.81 0 13.21 0 .98 0 1.17.32 1.08 1.37-.78 7.07-2.74 13.71-6.17 19.72-7.73 13.5-19.09 21.09-33.57 23.2-.98.11-1.27-.1-1.27-1.16v-7.17c-.1-2.11 0-4.22-.1-6.33Zm67.73-80.24c-.1 4.74 0 9.49 0 14.23 0 1.05-.29 1.26-1.27 1.37-3.23.32-6.17 1.58-9.01 3.16-8.42 4.96-13.51 12.55-15.27 22.67-.2 1.16-.59 1.48-1.66 1.48-2.06-.11-4.21 0-6.26 0h-6.46c-.78 0-1.47 0-1.27-1.27.88-7.06 2.74-13.71 6.17-19.82 5.09-8.96 12.14-15.61 21.04-19.72 4.01-1.9 8.22-3.16 12.63-3.37.98 0 1.37.21 1.37 1.27Zm-67.73-.21c-.1-1.37.2-2.11 1.66-2.32 5.68-.95 10.57-3.69 14.78-7.91 4.89-4.85 7.83-10.86 9.01-17.93.1-.95.29-1.48 1.37-1.48 4.41.11 8.81 0 13.21 0 .98 0 1.17.32 1.08 1.37-.78 7.07-2.74 13.71-6.17 19.72-7.73 13.5-19.09 21.09-33.57 23.2-.98.11-1.27-.1-1.27-1.16v-7.17c-.1-2 0-4.22-.1-6.33Zm67.73-80.25c-.1 4.75 0 9.49 0 14.23 0 1.06-.29 1.27-1.27 1.37-3.23.32-6.17 1.58-9.01 3.16-8.42 4.96-13.51 12.55-15.27 22.67-.2 1.16-.59 1.48-1.66 1.48-2.06-.11-4.21 0-6.26 0h-6.46c-.78 0-1.47 0-1.27-1.27.88-7.06 2.74-13.71 6.17-19.82 5.09-8.96 12.14-15.61 21.04-19.72 4.01-1.9 8.22-3.16 12.63-3.37.98.11 1.37.21 1.37 1.27Zm-67.73-.1c-.1-1.37.2-2.11 1.66-2.32 5.68-.95 10.57-3.69 14.78-7.91 4.89-4.85 7.83-10.86 9.01-17.93.1-.95.29-1.48 1.37-1.48 4.41.11 8.81 0 13.21 0 .98 0 1.17.32 1.08 1.37-.78 7.06-2.74 13.71-6.17 19.72-7.73 13.5-19.09 21.09-33.57 23.2-.98.1-1.27-.11-1.27-1.16v-7.17c-.1-2.11 0-4.22-.1-6.33Zm-7.05 562.98c-.1 4.74 0 9.49 0 14.23 0 1.06-.29 1.27-1.27 1.37-3.23.32-6.17 1.58-9.01 3.16-8.42 4.96-13.51 12.55-15.27 22.67-.2 1.16-.59 1.48-1.66 1.48-2.06-.11-4.21 0-6.26 0h-6.46c-.78 0-1.47 0-1.27-1.26.88-7.07 2.74-13.71 6.17-19.82 5.09-8.96 12.14-15.61 21.04-19.72 4.01-1.9 8.22-3.16 12.63-3.37.98 0 1.37.21 1.37 1.26Zm-67.73-.21c-.1-1.37.2-2.11 1.66-2.32 5.68-.95 10.57-3.69 14.78-7.91 4.89-4.85 7.83-10.86 9.01-17.93.1-.95.29-1.48 1.37-1.48 4.4.11 8.81 0 13.21 0 .98 0 1.17.32 1.08 1.37-.78 7.07-2.74 13.71-6.17 19.72-7.73 13.5-19.09 21.09-33.57 23.2-.98.11-1.27-.1-1.27-1.16v-7.17c-.1-2 0-4.22-.1-6.33Zm67.73-80.25c-.1 4.75 0 9.49 0 14.24 0 1.05-.29 1.26-1.27 1.37-3.23.32-6.17 1.58-9.01 3.16-8.42 4.96-13.51 12.55-15.27 22.67-.2 1.16-.59 1.48-1.66 1.48-2.06-.1-4.21 0-6.26 0h-6.46c-.78 0-1.47 0-1.27-1.26.88-7.07 2.74-13.71 6.17-19.82 5.09-8.96 12.14-15.61 21.04-19.72 4.01-1.9 8.22-3.16 12.63-3.37.98.1 1.37.21 1.37 1.26Zm-67.73-.1c-.1-1.37.2-2.11 1.66-2.32 5.68-.95 10.57-3.69 14.78-7.91 4.89-4.85 7.83-10.86 9.01-17.93.1-.95.29-1.48 1.37-1.48 4.4.1 8.81 0 13.21 0 .98 0 1.17.32 1.08 1.37-.78 7.06-2.74 13.71-6.17 19.72-7.73 13.5-19.09 21.09-33.57 23.2-.98.1-1.27-.11-1.27-1.16v-7.17c-.1-2.11 0-4.22-.1-6.33Zm67.73-80.25c-.1 4.75 0 9.49 0 14.24 0 1.05-.29 1.26-1.27 1.37-3.23.32-6.17 1.58-9.01 3.16-8.42 4.96-13.51 12.55-15.27 22.67-.2 1.16-.59 1.48-1.66 1.48-2.06-.1-4.21 0-6.26 0h-6.46c-.78 0-1.47 0-1.27-1.26.88-7.07 2.74-13.71 6.17-19.82 5.09-8.96 12.14-15.61 21.04-19.72 4.01-1.9 8.22-3.16 12.63-3.37.98 0 1.37.21 1.37 1.26Zm-67.73-.21c-.1-1.37.2-2.11 1.66-2.32 5.68-.95 10.57-3.69 14.78-7.91 4.89-4.85 7.83-10.86 9.01-17.93.1-.95.29-1.48 1.37-1.48 4.4.1 8.81 0 13.21 0 .98 0 1.17.32 1.08 1.37-.78 7.06-2.74 13.71-6.17 19.72-7.73 13.5-19.09 21.09-33.57 23.2-.98.11-1.27-.11-1.27-1.16v-7.17c-.1-2 0-4.22-.1-6.33Zm67.73-80.25c-.1 4.74 0 9.49 0 14.23 0 1.06-.29 1.27-1.27 1.37-3.23.32-6.17 1.58-9.01 3.16-8.42 4.96-13.51 12.55-15.27 22.67-.2 1.16-.59 1.48-1.66 1.48-2.06-.1-4.21 0-6.26 0h-6.46c-.78 0-1.47 0-1.27-1.26.88-7.07 2.74-13.71 6.17-19.82 5.09-8.96 12.14-15.61 21.04-19.72 4.01-1.9 8.22-3.16 12.63-3.37.98.11 1.37.21 1.37 1.27Zm-67.73-.1c-.1-1.37.2-2.11 1.66-2.32 5.68-.95 10.57-3.69 14.78-7.91 4.89-4.85 7.83-10.86 9.01-17.93.1-.95.29-1.48 1.37-1.48 4.4.11 8.81 0 13.21 0 .98 0 1.17.32 1.08 1.37-.78 7.07-2.74 13.71-6.17 19.72-7.73 13.5-19.09 21.09-33.57 23.2-.98.11-1.27-.1-1.27-1.16v-7.17c-.1-2.11 0-4.22-.1-6.33Zm67.73-80.25c-.1 4.74 0 9.49 0 14.23 0 1.06-.29 1.27-1.27 1.37-3.23.32-6.17 1.58-9.01 3.16-8.42 4.96-13.51 12.55-15.27 22.67-.2 1.16-.59 1.48-1.66 1.48-2.06-.11-4.21 0-6.26 0h-6.46c-.78 0-1.47 0-1.27-1.27.88-7.06 2.74-13.71 6.17-19.82 5.09-8.96 12.14-15.61 21.04-19.72 4.01-1.9 8.22-3.16 12.63-3.37.98 0 1.37.21 1.37 1.27Zm-67.73-.21c-.1-1.37.2-2.11 1.66-2.32 5.68-.95 10.57-3.69 14.78-7.91 4.89-4.85 7.83-10.86 9.01-17.93.1-.95.29-1.48 1.37-1.48 4.4.11 8.81.11 13.21 0 .98 0 1.17.32 1.08 1.37-.78 7.06-2.74 13.71-6.17 19.72-7.73 13.5-19.09 21.09-33.57 23.2-.98.11-1.27-.1-1.27-1.16v-7.17c-.1-2 0-4.22-.1-6.33Zm67.73-80.24c-.1 4.74 0 9.49 0 14.23 0 1.05-.29 1.27-1.27 1.37-3.23.32-6.17 1.58-9.01 3.16-8.42 4.96-13.51 12.55-15.27 22.67-.2 1.16-.59 1.48-1.66 1.48-2.06-.11-4.21 0-6.26 0h-6.46c-.78 0-1.47 0-1.27-1.27.88-7.06 2.74-13.71 6.17-19.82 5.09-8.96 12.14-15.61 21.04-19.72 4.01-1.9 8.22-3.16 12.63-3.37.98.11 1.37.21 1.37 1.27Zm-67.73-.11c-.1-1.37.2-2.11 1.66-2.32 5.68-.95 10.57-3.69 14.78-7.91 4.89-4.85 7.83-10.86 9.01-17.93.1-.95.29-1.48 1.37-1.48 4.4.11 8.81 0 13.21 0 .98 0 1.17.32 1.08 1.37-.78 7.07-2.74 13.71-6.17 19.72-7.73 13.5-19.09 21.09-33.57 23.2-.98.11-1.27-.1-1.27-1.16v-7.17c-.1-2.11 0-4.22-.1-6.33Zm67.73-80.24c-.1 4.74 0 9.49 0 14.23 0 1.05-.29 1.26-1.27 1.37-3.23.32-6.17 1.58-9.01 3.16-8.42 4.96-13.51 12.55-15.27 22.67-.2 1.16-.59 1.48-1.66 1.48-2.06-.11-4.21 0-6.26 0h-6.46c-.78 0-1.47 0-1.27-1.27.88-7.06 2.74-13.71 6.17-19.82 5.09-8.96 12.14-15.61 21.04-19.72 4.01-1.9 8.22-3.16 12.63-3.37.98 0 1.37.21 1.37 1.27Zm-67.73-.21c-.1-1.37.2-2.11 1.66-2.32 5.68-.95 10.57-3.69 14.78-7.91 4.89-4.85 7.83-10.86 9.01-17.93.1-.95.29-1.48 1.37-1.48 4.4.11 8.81 0 13.21 0 .98 0 1.17.32 1.08 1.37-.78 7.07-2.74 13.71-6.17 19.72-7.73 13.5-19.09 21.09-33.57 23.2-.98.11-1.27-.1-1.27-1.16v-7.17c-.1-2 0-4.22-.1-6.33Zm67.73-80.25c-.1 4.75 0 9.49 0 14.23 0 1.06-.29 1.27-1.27 1.37-3.23.32-6.17 1.58-9.01 3.16-8.42 4.96-13.51 12.55-15.27 22.67-.2 1.16-.59 1.48-1.66 1.48-2.06-.11-4.21 0-6.26 0h-6.46c-.78 0-1.47 0-1.27-1.27.88-7.06 2.74-13.71 6.17-19.82 5.09-8.96 12.14-15.61 21.04-19.72 4.01-1.9 8.22-3.16 12.63-3.37.98.11 1.37.21 1.37 1.27Zm-67.73-.1c-.1-1.37.2-2.11 1.66-2.32 5.68-.95 10.57-3.69 14.78-7.91 4.89-4.85 7.83-10.86 9.01-17.93.1-.95.29-1.48 1.37-1.48 4.4.11 8.81 0 13.21 0 .98 0 1.17.32 1.08 1.37-.78 7.06-2.74 13.71-6.17 19.72-7.73 13.5-19.09 21.09-33.57 23.2-.98.1-1.27-.11-1.27-1.16v-7.17c-.1-2.11 0-4.22-.1-6.33ZM64.3 580.85c-.1 4.74 0 9.49 0 14.23 0 1.06-.29 1.27-1.27 1.37-3.23.32-6.17 1.58-9.01 3.16-8.42 4.96-13.51 12.55-15.27 22.67-.2 1.16-.59 1.48-1.66 1.48-2.06-.11-4.21 0-6.26 0h-6.46c-.78 0-1.47 0-1.27-1.26.88-7.07 2.74-13.71 6.17-19.82 5.09-8.96 12.14-15.61 21.04-19.72 4.01-1.9 8.22-3.16 12.63-3.37.98 0 1.37.21 1.37 1.26Zm-67.83-.21c-.1-1.37.2-2.11 1.66-2.32 5.68-.95 10.57-3.69 14.78-7.91 4.89-4.85 7.83-10.86 9.01-17.93.1-.95.29-1.48 1.37-1.48 4.4.11 8.81 0 13.21 0 .98 0 1.18.32 1.08 1.37-.78 7.07-2.74 13.71-6.17 19.72-7.73 13.5-19.09 21.09-33.57 23.2-.98.11-1.27-.1-1.27-1.16v-7.17c0-2 0-4.22-.1-6.33Zm67.83-80.25c-.1 4.75 0 9.49 0 14.24 0 1.05-.29 1.26-1.27 1.37-3.23.32-6.17 1.58-9.01 3.16-8.42 4.96-13.51 12.55-15.27 22.67-.2 1.16-.59 1.48-1.66 1.48-2.06-.1-4.21 0-6.26 0h-6.46c-.78 0-1.47 0-1.27-1.26.88-7.07 2.74-13.71 6.17-19.82 5.09-8.96 12.14-15.61 21.04-19.72 4.01-1.9 8.22-3.16 12.63-3.37.98.1 1.37.21 1.37 1.26Zm-67.83-.1c-.1-1.37.2-2.11 1.66-2.32 5.68-.95 10.57-3.69 14.78-7.91 4.89-4.85 7.83-10.86 9.01-17.93.1-.95.29-1.48 1.37-1.48 4.4.1 8.81 0 13.21 0 .98 0 1.18.32 1.08 1.37-.78 7.06-2.74 13.71-6.17 19.72-7.73 13.5-19.09 21.09-33.57 23.2-.98.1-1.27-.11-1.27-1.16v-7.17c0-2.11 0-4.22-.1-6.33Zm67.83-80.25c-.1 4.75 0 9.49 0 14.24 0 1.05-.29 1.26-1.27 1.37-3.23.32-6.17 1.58-9.01 3.16-8.42 4.96-13.51 12.55-15.27 22.67-.2 1.16-.59 1.48-1.66 1.48-2.06-.1-4.21 0-6.26 0h-6.46c-.78 0-1.47 0-1.27-1.26.88-7.07 2.74-13.71 6.17-19.82 5.09-8.96 12.14-15.61 21.04-19.72 4.01-1.9 8.22-3.16 12.63-3.37.98 0 1.37.21 1.37 1.26Zm-67.83-.21c-.1-1.37.2-2.11 1.66-2.32 5.68-.95 10.57-3.69 14.78-7.91 4.89-4.85 7.83-10.86 9.01-17.93.1-.95.29-1.48 1.37-1.48 4.4.1 8.81 0 13.21 0 .98 0 1.18.32 1.08 1.37-.78 7.06-2.74 13.71-6.17 19.72-7.73 13.5-19.09 21.09-33.57 23.2-.98.11-1.27-.11-1.27-1.16v-7.17c0-2 0-4.22-.1-6.33Zm67.83-80.25c-.1 4.74 0 9.49 0 14.23 0 1.06-.29 1.27-1.27 1.37-3.23.32-6.17 1.58-9.01 3.16-8.42 4.96-13.51 12.55-15.27 22.67-.2 1.16-.59 1.48-1.66 1.48-2.06-.1-4.21 0-6.26 0h-6.46c-.78 0-1.47 0-1.27-1.26.88-7.07 2.74-13.71 6.17-19.82 5.09-8.96 12.14-15.61 21.04-19.72 4.01-1.9 8.22-3.16 12.63-3.37.98.11 1.37.21 1.37 1.27Zm-67.83-.1c-.1-1.37.2-2.11 1.66-2.32 5.68-.95 10.57-3.69 14.78-7.91 4.89-4.85 7.83-10.86 9.01-17.93.1-.95.29-1.48 1.37-1.48 4.4.11 8.81 0 13.21 0 .98 0 1.18.32 1.08 1.37-.78 7.07-2.74 13.71-6.17 19.72-7.73 13.5-19.09 21.09-33.57 23.2-.98.11-1.27-.1-1.27-1.16v-7.17c0-2.11 0-4.22-.1-6.33Zm67.83-80.25c-.1 4.74 0 9.49 0 14.23 0 1.06-.29 1.27-1.27 1.37-3.23.32-6.17 1.58-9.01 3.16-8.42 4.96-13.51 12.55-15.27 22.67-.2 1.16-.59 1.48-1.66 1.48-2.06-.11-4.21 0-6.26 0h-6.46c-.78 0-1.47 0-1.27-1.27.88-7.06 2.74-13.71 6.17-19.82 5.09-8.96 12.14-15.61 21.04-19.72 4.01-1.9 8.22-3.16 12.63-3.37.98 0 1.37.21 1.37 1.27Zm-67.83-.21c-.1-1.37.2-2.11 1.66-2.32 5.68-.95 10.57-3.69 14.78-7.91 4.89-4.85 7.83-10.86 9.01-17.93.1-.95.29-1.48 1.37-1.48 4.4.11 8.81.11 13.21 0 .98 0 1.18.32 1.08 1.37-.78 7.06-2.74 13.71-6.17 19.72-7.73 13.5-19.09 21.09-33.57 23.2-.98.11-1.27-.1-1.27-1.16v-7.17c0-2 0-4.22-.1-6.33Zm67.83-80.24c-.1 4.74 0 9.49 0 14.23 0 1.05-.29 1.27-1.27 1.37-3.23.32-6.17 1.58-9.01 3.16-8.42 4.96-13.51 12.55-15.27 22.67-.2 1.16-.59 1.48-1.66 1.48-2.06-.11-4.21 0-6.26 0h-6.46c-.78 0-1.47 0-1.27-1.27.88-7.06 2.74-13.71 6.17-19.82 5.09-8.96 12.14-15.61 21.04-19.72 4.01-1.9 8.22-3.16 12.63-3.37.98.11 1.37.21 1.37 1.27Zm-67.83-.11c-.1-1.37.2-2.11 1.66-2.32 5.68-.95 10.57-3.69 14.78-7.91 4.89-4.85 7.83-10.86 9.01-17.93.1-.95.29-1.48 1.37-1.48 4.4.11 8.81 0 13.21 0 .98 0 1.18.32 1.08 1.37-.78 7.07-2.74 13.71-6.17 19.72-7.73 13.5-19.09 21.09-33.57 23.2-.98.11-1.27-.1-1.27-1.16v-7.17c0-2.11 0-4.22-.1-6.33ZM64.3 98.43c-.1 4.74 0 9.49 0 14.23 0 1.05-.29 1.26-1.27 1.37-3.23.32-6.17 1.58-9.01 3.16-8.42 4.96-13.51 12.55-15.27 22.67-.2 1.16-.59 1.48-1.66 1.48-2.06-.11-4.21 0-6.26 0h-6.46c-.78 0-1.47 0-1.27-1.27.88-7.06 2.74-13.71 6.17-19.82 5.09-8.96 12.14-15.61 21.04-19.72 4.01-1.9 8.22-3.16 12.63-3.37.98 0 1.37.21 1.37 1.27Zm-67.83-.21c-.1-1.37.2-2.11 1.66-2.32 5.68-.95 10.57-3.69 14.78-7.91 4.89-4.85 7.83-10.86 9.01-17.93.1-.95.29-1.48 1.37-1.48 4.4.11 8.81 0 13.21 0 .98 0 1.18.32 1.08 1.37-.78 7.07-2.74 13.71-6.17 19.72-7.73 13.5-19.09 21.09-33.57 23.2-.98.11-1.27-.1-1.27-1.16v-7.17c0-2 0-4.22-.1-6.33ZM64.3 17.97c-.1 4.75 0 9.49 0 14.23 0 1.06-.29 1.27-1.27 1.37-3.23.32-6.17 1.58-9.01 3.16-8.42 4.96-13.51 12.55-15.27 22.67-.2 1.16-.59 1.48-1.66 1.48-2.06-.11-4.21 0-6.26 0h-6.46c-.78 0-1.47 0-1.27-1.27.88-7.06 2.74-13.71 6.17-19.82 5.09-8.96 12.14-15.61 21.04-19.72 4.01-1.9 8.22-3.16 12.63-3.37.98.11 1.37.21 1.37 1.27Zm-67.83-.1c-.1-1.37.2-2.11 1.66-2.32 5.68-.95 10.57-3.69 14.78-7.91 4.89-4.85 7.83-10.86 9.01-17.93.1-.95.29-1.48 1.37-1.48 4.4.11 8.81 0 13.21 0 .98 0 1.18.32 1.08 1.37-.78 7.06-2.74 13.71-6.17 19.72-7.73 13.5-19.08 21.09-33.57 23.2-.98.1-1.27-.11-1.27-1.16v-7.17c0-2.11 0-4.22-.1-6.33Zm292.17 562.98c-.1 4.74 0 9.49 0 14.23 0 1.06-.29 1.27-1.27 1.37-3.23.32-6.17 1.58-9.01 3.16-8.42 4.96-13.51 12.55-15.27 22.67-.2 1.16-.59 1.48-1.66 1.48-2.06-.11-4.21 0-6.26 0h-6.46c-.78 0-1.47 0-1.27-1.26.88-7.07 2.74-13.71 6.17-19.82 5.09-8.96 12.14-15.61 21.04-19.72 4.01-1.9 8.22-3.16 12.63-3.37 1.08 0 1.37.21 1.37 1.26Zm-67.73-.21c-.1-1.37.2-2.11 1.66-2.32 5.68-.95 10.57-3.69 14.78-7.91 4.89-4.85 7.83-10.86 9-17.93.1-.95.29-1.48 1.37-1.48 4.41.11 8.81 0 13.21 0 .98 0 1.17.32 1.08 1.37-.78 7.07-2.74 13.71-6.17 19.72-7.73 13.5-19.09 21.09-33.57 23.2-.98.11-1.27-.1-1.27-1.16v-7.17c-.1-2 0-4.22-.1-6.33Zm67.73-80.25c-.1 4.75 0 9.49 0 14.24 0 1.05-.29 1.26-1.27 1.37-3.23.32-6.17 1.58-9.01 3.16-8.42 4.96-13.51 12.55-15.27 22.67-.2 1.16-.59 1.48-1.66 1.48-2.06-.1-4.21 0-6.26 0h-6.46c-.78 0-1.47 0-1.27-1.26.88-7.07 2.74-13.71 6.17-19.82 5.09-8.96 12.14-15.61 21.04-19.72 4.01-1.9 8.22-3.16 12.63-3.37 1.08.1 1.37.21 1.37 1.26Zm-67.73-.1c-.1-1.37.2-2.11 1.66-2.32 5.68-.95 10.57-3.69 14.78-7.91 4.89-4.85 7.83-10.86 9-17.93.1-.95.29-1.48 1.37-1.48 4.41.1 8.81 0 13.21 0 .98 0 1.17.32 1.08 1.37-.78 7.06-2.74 13.71-6.17 19.72-7.73 13.5-19.09 21.09-33.57 23.2-.98.1-1.27-.11-1.27-1.16v-7.17c-.1-2.11 0-4.22-.1-6.33Zm67.73-80.25c-.1 4.75 0 9.49 0 14.24 0 1.05-.29 1.26-1.27 1.37-3.23.32-6.17 1.58-9.01 3.16-8.42 4.96-13.51 12.55-15.27 22.67-.2 1.16-.59 1.48-1.66 1.48-2.06-.1-4.21 0-6.26 0h-6.46c-.78 0-1.47 0-1.27-1.26.88-7.07 2.74-13.71 6.17-19.82 5.09-8.96 12.14-15.61 21.04-19.72 4.01-1.9 8.22-3.16 12.63-3.37 1.08 0 1.37.21 1.37 1.26Zm-67.73-.21c-.1-1.37.2-2.11 1.66-2.32 5.68-.95 10.57-3.69 14.78-7.91 4.89-4.85 7.83-10.86 9-17.93.1-.95.29-1.48 1.37-1.48 4.41.1 8.81 0 13.21 0 .98 0 1.17.32 1.08 1.37-.78 7.06-2.74 13.71-6.17 19.72-7.73 13.5-19.09 21.09-33.57 23.2-.98.11-1.27-.11-1.27-1.16v-7.17c-.1-2 0-4.22-.1-6.33Zm67.73-80.25c-.1 4.74 0 9.49 0 14.23 0 1.06-.29 1.27-1.27 1.37-3.23.32-6.17 1.58-9.01 3.16-8.42 4.96-13.51 12.55-15.27 22.67-.2 1.16-.59 1.48-1.66 1.48-2.06-.1-4.21 0-6.26 0h-6.46c-.78 0-1.47 0-1.27-1.26.88-7.07 2.74-13.71 6.17-19.82 5.09-8.96 12.14-15.61 21.04-19.72 4.01-1.9 8.22-3.16 12.63-3.37 1.08.11 1.37.21 1.37 1.27Zm-67.73-.1c-.1-1.37.2-2.11 1.66-2.32 5.68-.95 10.57-3.69 14.78-7.91 4.89-4.85 7.83-10.86 9-17.93.1-.95.29-1.48 1.37-1.48 4.41.11 8.81 0 13.21 0 .98 0 1.17.32 1.08 1.37-.78 7.07-2.74 13.71-6.17 19.72-7.73 13.5-19.09 21.09-33.57 23.2-.98.11-1.27-.1-1.27-1.16v-7.17c-.1-2.11 0-4.22-.1-6.33Zm67.73-80.25c-.1 4.74 0 9.49 0 14.23 0 1.06-.29 1.27-1.27 1.37-3.23.32-6.17 1.58-9.01 3.16-8.42 4.96-13.51 12.55-15.27 22.67-.2 1.16-.59 1.48-1.66 1.48-2.06-.11-4.21 0-6.26 0h-6.46c-.78 0-1.47 0-1.27-1.27.88-7.06 2.74-13.71 6.17-19.82 5.09-8.96 12.14-15.61 21.04-19.72 4.01-1.9 8.22-3.16 12.63-3.37 1.08 0 1.37.21 1.37 1.27Zm-67.73-.21c-.1-1.37.2-2.11 1.66-2.32 5.68-.95 10.57-3.69 14.78-7.91 4.89-4.85 7.83-10.86 9-17.93.1-.95.29-1.48 1.37-1.48 4.41.11 8.81.11 13.21 0 .98 0 1.17.32 1.08 1.37-.78 7.06-2.74 13.71-6.17 19.72-7.73 13.5-19.09 21.09-33.57 23.2-.98.11-1.27-.1-1.27-1.16v-7.17c-.1-2 0-4.22-.1-6.33Zm67.73-80.24c-.1 4.74 0 9.49 0 14.23 0 1.05-.29 1.27-1.27 1.37-3.23.32-6.17 1.58-9.01 3.16-8.42 4.96-13.51 12.55-15.27 22.67-.2 1.16-.59 1.48-1.66 1.48-2.06-.11-4.21 0-6.26 0h-6.46c-.78 0-1.47 0-1.27-1.27.88-7.06 2.74-13.71 6.17-19.82 5.09-8.96 12.14-15.61 21.04-19.72 4.01-1.9 8.22-3.16 12.63-3.37 1.08.11 1.37.21 1.37 1.27Zm-67.73-.11c-.1-1.37.2-2.11 1.66-2.32 5.68-.95 10.57-3.69 14.78-7.91 4.89-4.85 7.83-10.86 9-17.93.1-.95.29-1.48 1.37-1.48 4.41.11 8.81 0 13.21 0 .98 0 1.17.32 1.08 1.37-.78 7.07-2.74 13.71-6.17 19.72-7.73 13.5-19.09 21.09-33.57 23.2-.98.11-1.27-.1-1.27-1.16v-7.17c-.1-2.11 0-4.22-.1-6.33Zm67.73-80.24c-.1 4.74 0 9.49 0 14.23 0 1.05-.29 1.26-1.27 1.37-3.23.32-6.17 1.58-9.01 3.16-8.42 4.96-13.51 12.55-15.27 22.67-.2 1.16-.59 1.48-1.66 1.48-2.06-.11-4.21 0-6.26 0h-6.46c-.78 0-1.47 0-1.27-1.27.88-7.06 2.74-13.71 6.17-19.82 5.09-8.96 12.14-15.61 21.04-19.72 4.01-1.9 8.22-3.16 12.63-3.37 1.08 0 1.37.21 1.37 1.27Zm-67.73-.21c-.1-1.37.2-2.11 1.66-2.32 5.68-.95 10.57-3.69 14.78-7.91 4.89-4.85 7.83-10.86 9-17.93.1-.95.29-1.48 1.37-1.48 4.41.11 8.81 0 13.21 0 .98 0 1.17.32 1.08 1.37-.78 7.07-2.74 13.71-6.17 19.72-7.73 13.5-19.09 21.09-33.57 23.2-.98.11-1.27-.1-1.27-1.16v-7.17c-.1-2 0-4.22-.1-6.33Zm67.73-80.25c-.1 4.75 0 9.49 0 14.23 0 1.06-.29 1.27-1.27 1.37-3.23.32-6.17 1.58-9.01 3.16-8.42 4.96-13.51 12.55-15.27 22.67-.2 1.16-.59 1.48-1.66 1.48-2.06-.11-4.21 0-6.26 0h-6.46c-.78 0-1.47 0-1.27-1.27.88-7.06 2.74-13.71 6.17-19.82 5.09-8.96 12.14-15.61 21.04-19.72 4.01-1.9 8.22-3.16 12.63-3.37 1.08.11 1.37.21 1.37 1.27Zm-67.73-.1c-.1-1.37.2-2.11 1.66-2.32 5.68-.95 10.57-3.69 14.78-7.91 4.89-4.85 7.83-10.86 9-17.93.1-.95.29-1.48 1.37-1.48 4.41.11 8.81 0 13.21 0 .98 0 1.17.32 1.08 1.37-.78 7.06-2.74 13.71-6.17 19.72-7.73 13.5-19.09 21.09-33.57 23.2-.98.1-1.27-.11-1.27-1.16v-7.17c-.1-2.11 0-4.22-.1-6.33Zm142.51 562.98c-.1 4.74 0 9.49 0 14.23 0 1.06-.29 1.27-1.27 1.37-3.23.32-6.17 1.58-9.01 3.16-8.42 4.96-13.51 12.55-15.27 22.67-.2 1.16-.59 1.48-1.66 1.48-2.06-.11-4.21 0-6.26 0h-6.46c-.78 0-1.47 0-1.27-1.26.88-7.07 2.74-13.71 6.17-19.82 5.09-8.96 12.14-15.61 21.04-19.72 4.01-1.9 8.22-3.16 12.63-3.37 1.08 0 1.37.21 1.37 1.26Zm-67.74-.21c-.1-1.37.2-2.11 1.66-2.32 5.68-.95 10.57-3.69 14.78-7.91 4.89-4.85 7.83-10.86 9.01-17.93.1-.95.29-1.48 1.37-1.48 4.4.11 8.81 0 13.21 0 .98 0 1.18.32 1.08 1.37-.78 7.07-2.74 13.71-6.17 19.72-7.73 13.5-19.09 21.09-33.57 23.2-.98.11-1.27-.1-1.27-1.16v-7.17c-.1-2 0-4.22-.1-6.33Zm67.74-80.25c-.1 4.75 0 9.49 0 14.24 0 1.05-.29 1.26-1.27 1.37-3.23.32-6.17 1.58-9.01 3.16-8.42 4.96-13.51 12.55-15.27 22.67-.2 1.16-.59 1.48-1.66 1.48-2.06-.1-4.21 0-6.26 0h-6.46c-.78 0-1.47 0-1.27-1.26.88-7.07 2.74-13.71 6.17-19.82 5.09-8.96 12.14-15.61 21.04-19.72 4.01-1.9 8.22-3.16 12.63-3.37 1.08.1 1.37.21 1.37 1.26Zm-67.74-.1c-.1-1.37.2-2.11 1.66-2.32 5.68-.95 10.57-3.69 14.78-7.91 4.89-4.85 7.83-10.86 9.01-17.93.1-.95.29-1.48 1.37-1.48 4.4.1 8.81 0 13.21 0 .98 0 1.18.32 1.08 1.37-.78 7.06-2.74 13.71-6.17 19.72-7.73 13.5-19.09 21.09-33.57 23.2-.98.1-1.27-.11-1.27-1.16v-7.17c-.1-2.11 0-4.22-.1-6.33Zm67.74-80.25c-.1 4.75 0 9.49 0 14.24 0 1.05-.29 1.26-1.27 1.37-3.23.32-6.17 1.58-9.01 3.16-8.42 4.96-13.51 12.55-15.27 22.67-.2 1.16-.59 1.48-1.66 1.48-2.06-.1-4.21 0-6.26 0h-6.46c-.78 0-1.47 0-1.27-1.26.88-7.07 2.74-13.71 6.17-19.82 5.09-8.96 12.14-15.61 21.04-19.72 4.01-1.9 8.22-3.16 12.63-3.37 1.08 0 1.37.21 1.37 1.26Zm-67.74-.21c-.1-1.37.2-2.11 1.66-2.32 5.68-.95 10.57-3.69 14.78-7.91 4.89-4.85 7.83-10.86 9.01-17.93.1-.95.29-1.48 1.37-1.48 4.4.1 8.81 0 13.21 0 .98 0 1.18.32 1.08 1.37-.78 7.06-2.74 13.71-6.17 19.72-7.73 13.5-19.09 21.09-33.57 23.2-.98.11-1.27-.11-1.27-1.16v-7.17c-.1-2 0-4.22-.1-6.33Zm67.74-80.25c-.1 4.74 0 9.49 0 14.23 0 1.06-.29 1.27-1.27 1.37-3.23.32-6.17 1.58-9.01 3.16-8.42 4.96-13.51 12.55-15.27 22.67-.2 1.16-.59 1.48-1.66 1.48-2.06-.1-4.21 0-6.26 0h-6.46c-.78 0-1.47 0-1.27-1.26.88-7.07 2.74-13.71 6.17-19.82 5.09-8.96 12.14-15.61 21.04-19.72 4.01-1.9 8.22-3.16 12.63-3.37 1.08.11 1.37.21 1.37 1.27Zm-67.74-.1c-.1-1.37.2-2.11 1.66-2.32 5.68-.95 10.57-3.69 14.78-7.91 4.89-4.85 7.83-10.86 9.01-17.93.1-.95.29-1.48 1.37-1.48 4.4.11 8.81 0 13.21 0 .98 0 1.18.32 1.08 1.37-.78 7.07-2.74 13.71-6.17 19.72-7.73 13.5-19.09 21.09-33.57 23.2-.98.11-1.27-.1-1.27-1.16v-7.17c-.1-2.11 0-4.22-.1-6.33Zm67.74-80.25c-.1 4.74 0 9.49 0 14.23 0 1.06-.29 1.27-1.27 1.37-3.23.32-6.17 1.58-9.01 3.16-8.42 4.96-13.51 12.55-15.27 22.67-.2 1.16-.59 1.48-1.66 1.48-2.06-.11-4.21 0-6.26 0h-6.46c-.78 0-1.47 0-1.27-1.27.88-7.06 2.74-13.71 6.17-19.82 5.09-8.96 12.14-15.61 21.04-19.72 4.01-1.9 8.22-3.16 12.63-3.37 1.08 0 1.37.21 1.37 1.27Zm-67.74-.21c-.1-1.37.2-2.11 1.66-2.32 5.68-.95 10.57-3.69 14.78-7.91 4.89-4.85 7.83-10.86 9.01-17.93.1-.95.29-1.48 1.37-1.48 4.4.11 8.81.11 13.21 0 .98 0 1.18.32 1.08 1.37-.78 7.06-2.74 13.71-6.17 19.72-7.73 13.5-19.09 21.09-33.57 23.2-.98.11-1.27-.1-1.27-1.16v-7.17c-.1-2 0-4.22-.1-6.33Zm67.74-80.24c-.1 4.74 0 9.49 0 14.23 0 1.05-.29 1.27-1.27 1.37-3.23.32-6.17 1.58-9.01 3.16-8.42 4.96-13.51 12.55-15.27 22.67-.2 1.16-.59 1.48-1.66 1.48-2.06-.11-4.21 0-6.26 0h-6.46c-.78 0-1.47 0-1.27-1.27.88-7.06 2.74-13.71 6.17-19.82 5.09-8.96 12.14-15.61 21.04-19.72 4.01-1.9 8.22-3.16 12.63-3.37 1.08.11 1.37.21 1.37 1.27Zm-67.74-.11c-.1-1.37.2-2.11 1.66-2.32 5.68-.95 10.57-3.69 14.78-7.91 4.89-4.85 7.83-10.86 9.01-17.93.1-.95.29-1.48 1.37-1.48 4.4.11 8.81 0 13.21 0 .98 0 1.18.32 1.08 1.37-.78 7.07-2.74 13.71-6.17 19.72-7.73 13.5-19.09 21.09-33.57 23.2-.98.11-1.27-.1-1.27-1.16v-7.17c-.1-2.11 0-4.22-.1-6.33Zm45.17-74.06c-.09 4.47 0 8.95 0 13.42 0 .99-.28 1.19-1.2 1.29-3.04.3-5.81 1.49-8.48 2.98-7.93 4.67-12.72 11.83-14.38 21.37-.18 1.09-.55 1.39-1.57 1.39-1.94-.1-3.96 0-5.9 0h-6.09c-.74 0-1.38 0-1.2-1.19.83-6.66 2.58-12.92 5.81-18.69 4.79-8.45 11.43-14.71 19.82-18.59 3.78-1.79 7.74-2.98 11.89-3.18 1.01 0 1.29.2 1.29 1.19Z"/><path d="M277.06 104.41c-.09-1.29.18-1.99 1.57-2.19 5.35-.89 9.96-3.48 13.92-7.46 4.61-4.57 7.38-10.24 8.48-16.9.09-.9.28-1.39 1.29-1.39 4.15.1 8.3 0 12.44 0 .92 0 1.11.3 1.01 1.29-.74 6.66-2.58 12.92-5.81 18.59-7.28 12.73-17.98 19.88-31.62 21.87-.92.1-1.2-.1-1.2-1.09v-6.76c-.09-1.89 0-3.98-.09-5.96Zm63.79-75.65c-.09 4.47 0 8.95 0 13.42 0 .99-.28 1.19-1.2 1.29-3.04.3-5.81 1.49-8.48 2.98-7.93 4.67-12.72 11.83-14.38 21.37-.18 1.09-.55 1.39-1.57 1.39-1.94-.1-3.96 0-5.9 0h-6.09c-.74 0-1.38 0-1.2-1.19.83-6.66 2.58-12.92 5.81-18.69 4.79-8.45 11.43-14.71 19.82-18.59 3.78-1.79 7.74-2.98 11.89-3.18 1.01.1 1.29.2 1.29 1.19Zm-63.79-.13c-.09-1.29.18-1.99 1.57-2.19 5.35-.9 9.96-3.48 13.92-7.46 4.61-4.57 7.38-10.24 8.48-16.9.09-.89.28-1.39 1.29-1.39 4.15.1 8.3 0 12.44 0 .92 0 1.11.3 1.01 1.29-.74 6.66-2.58 12.92-5.81 18.59-7.28 12.73-17.98 19.88-31.62 21.87-.92.1-1.2-.1-1.2-1.09v-6.76c-.09-1.99 0-3.98-.09-5.96Z"/></g></svg>